<svg xmlns="http://www.w3.org/2000/svg" xmlns:xlink="http://www.w3.org/1999/xlink">
    <g id="product-e8588825-8be1-496d-b15d-360d83eba4d7">
        <g id="1KgZQG_2r6VuMR28$3QMLM" title="2AC1">
            <path style="stroke:black; fill:none;" d="M392.543,408.056 A52.4624,52.4624 0 0,0 392.543,470.223 L392.543,476.848 L400.946,476.848 L400.946,495.995 L390.968,495.995 L389.341,495.995 L362.716,495.995 L361.088,495.995 L338.761,495.995 L338.761,476.848 L342.335,476.848 L342.335,470.223 A52.4624,52.4624 0 0,0 342.335,408.056 L342.335,396.219 L362.65,396.219 L362.78,396.219 L364.277,395.702 L371.962,395.702 L371.962,395.043 L381.688,395.043 L381.688,395.702 L389.373,395.702 L392.543,395.702 L392.543,402.09 L392.543,408.056"/>
        </g>
        <g id="0uLn6BSvvEB8kgChiujNr3" title="2AC2">
            <path style="stroke:black; fill:none;" d="M342.335,568.764 L360.429,568.764 L360.429,550.708 L360.429,497.46 L360.429,497.314 L338.101,497.314 L322.125,497.314 L322.125,511.312 L337.729,511.312 L342.335,511.312 L342.335,568.764"/>
        </g>
        <g id="0uLn6BSvvEB8kgChiujNr0" title="2AC3">
            <path style="stroke:black; fill:none;" d="M342.335,580.773 L342.335,580.113 L342.335,570.083 L360.525,570.083 L360.525,580.773 L371.109,580.773 L388.968,580.773 L390.596,580.773 L397.149,580.773 L427.134,580.773 L428.496,580.773 L428.762,580.773 L438.229,580.773 L442.197,580.773 L466.79,580.773 L466.79,578.38 L470.513,578.38 L470.513,580.773 L473.672,580.773 L477.991,580.773 L489.659,580.773 L489.659,598.962 L472.236,598.962 L470.513,598.962 L470.513,599.622 L460.763,599.622 L460.763,598.962 L435.708,598.962 L434.176,598.962 L434.176,599.622 L434.08,599.622 L424.596,599.622 L424.596,598.962 L399.435,598.962 L398.057,598.962 L398.057,599.622 L397.808,599.622 L388.324,599.622 L388.324,598.962 L363.163,598.962 L361.784,598.962 L361.784,599.622 L361.535,599.622 L352.051,599.622 L352.051,598.962 L342.335,598.962 L342.335,580.79 L342.335,580.773"/>
        </g>
        <g id="0uLn6BSvvEB8kgChiujNGP" title="2AC4">
            <path style="stroke:black; fill:none;" d="M489.659,580.113 L489.659,541.118 L489.659,539.49 L489.659,523.237 L489.659,521.609 L489.659,515.886 L507.849,515.886 L507.849,528.566 L507.849,556.18 L507.849,594.41 L507.849,598.962 L506.615,598.962 L506.615,599.622 L497.035,599.622 L497.035,598.962 L489.659,598.962 L489.659,581.741 L489.659,580.113"/>
        </g>
        <g id="0uLn6BSvvEB8kgChiujNG6" title="2AC5">
            <path style="stroke:black; fill:none;" d="M489.659,540.458 L437.527,540.458 L437.527,522.269 L489.659,522.269 L489.659,540.458"/>
        </g>
        <g id="0uLn6BSvvEB8kgChiujNG3" title="2AS1">
            <path style="stroke:black; fill:none;" d="M390.309,495.995 L390.309,550.048 L361.748,550.048 L361.748,495.995 L390.309,495.995"/>
        </g>
        <g id="0uLn6BSvvEB8kgChiujNGA" title="2A01">
            <path style="stroke:black; fill:none;" d="M554.472,476.848 L554.472,493.029 L550.823,493.029 L550.823,527.906 L509.168,527.906 L509.168,515.227 L509.168,476.561 L509.168,471.501 L509.168,460.675 L526.698,460.675 L526.698,462.302 L527.161,462.302 L550.823,462.302 L550.823,476.848 L554.472,476.848"/>
        </g>
        <g id="0uLn6BSvvEB8kgChiujNHp" title="2A02">
            <path style="stroke:black; fill:none;" d="M554.472,539.501 L554.472,550.138 L550.823,550.138 L550.823,555.52 L509.168,555.52 L509.168,529.225 L550.823,529.225 L550.823,539.501 L554.472,539.501"/>
        </g>
        <g id="0uLn6BSvvEB8kgChiujNHm" title="2A03">
            <path style="stroke:black; fill:none;" d="M554.472,556.839 L554.472,593.75 L509.168,593.75 L509.168,556.839 L554.472,556.839"/>
        </g>
        <g id="0uLn6BSvvEB8kgChiujNHz" title="2A04">
            <path style="stroke:black; fill:none;" d="M554.472,595.069 L554.472,632.363 L509.168,632.363 L509.168,595.069 L554.472,595.069"/>
        </g>
        <g id="0uLn6BSvvEB8kgChiujNHw" title="2A05">
            <path style="stroke:black; fill:none;" d="M498.063,635.645 L479.544,635.645 L479.544,632.363 L472.895,632.363 L472.895,600.281 L489.659,600.281 L497.035,600.281 L497.035,599.622 L506.615,599.622 L506.615,600.281 L507.849,600.281 L507.849,632.363 L498.063,632.363 L498.063,635.645"/>
        </g>
        <g id="0uLn6BSvvEB8kgChiujNHd" title="2A06">
            <path style="stroke:black; fill:none;" d="M471.576,635.645 L436.367,635.645 L436.367,601.087 L436.367,600.281 L460.763,600.281 L460.763,599.622 L470.513,599.622 L470.513,600.281 L471.576,600.281 L471.576,632.65 L471.576,635.645"/>
        </g>
        <g id="0uLn6BSvvEB8kgChiujNHa" title="2A07">
            <path style="stroke:black; fill:none;" d="M435.048,635.645 L400.095,635.645 L400.095,632.65 L400.095,601.087 L400.095,600.281 L424.596,600.281 L424.596,599.622 L435.048,599.622 L435.048,635.645"/>
        </g>
        <g id="0uLn6BSvvEB8kgChiujNHX" title="2A08">
            <path style="stroke:black; fill:none;" d="M392.543,635.645 L363.822,635.645 L363.822,601.087 L363.822,600.281 L388.324,600.281 L388.324,599.622 L398.776,599.622 L398.776,632.363 L392.543,632.363 L392.543,635.645"/>
        </g>
        <g id="0uLn6BSvvEB8kgChiujNHk" title="2A09">
            <path style="stroke:black; fill:none;" d="M362.503,635.645 L342.335,635.645 L342.335,632.363 L327.911,632.363 L327.911,600.281 L342.335,600.281 L352.051,600.281 L352.051,599.622 L362.503,599.622 L362.503,635.645"/>
        </g>
        <g id="0uLn6BSvvEB8kgChiujNHh" title="2A10">
            <path style="stroke:black; fill:none;" d="M361.844,579.454 L371.109,579.454 L371.109,580.773 L390.309,580.773 L390.309,576.167 L390.309,551.367 L361.748,551.367 L361.748,569.423 L361.844,569.423 L361.844,579.454"/>
        </g>
        <g id="0uLn6BSvvEB8kgChiujNHe" title="2A11">
            <path style="stroke:black; fill:none;" d="M426.475,579.454 L397.436,579.454 L397.436,575.88 L391.628,575.88 L391.628,550.708 L391.628,497.46 L391.628,497.314 L402.265,497.314 L402.265,476.848 L405.706,476.848 L405.706,472.161 L426.113,472.161 L426.113,507.382 L426.113,522.269 L436.208,522.269 L436.208,540.458 L426.475,540.458 L426.475,562.422 L426.475,579.307 L426.475,579.454"/>
        </g>
        <g id="0uLn6BSvvEB8kgChiujNHL" title="2A12">
            <path style="stroke:black; fill:none;" d="M465.471,579.454 L442.856,579.454 L442.856,567.63 L436.99,561.763 L427.794,561.763 L427.794,541.777 L436.867,541.777 L465.471,541.777 L465.471,577.72 L465.471,579.454"/>
        </g>
        <g id="0uLn6BSvvEB8kgChiujNHI" title="2A13">
            <path style="stroke:black; fill:none;" d="M470.8,577.061 L466.79,577.061 L466.79,541.777 L488.194,541.777 L488.34,541.777 L488.34,579.454 L488.194,579.454 L478.278,579.454 L478.278,575.88 L473.672,575.88 L473.672,577.061 L470.8,577.061"/>
        </g>
        <g id="0uLn6BSvvEB8kgChiujNHV" title="2A12-A">
            <path style="stroke:black; fill:none;" d="M441.537,579.454 L441.537,568.176 L436.443,563.082 L427.794,563.082 L427.794,580.773 L438.229,580.773 L438.229,579.454 L441.537,579.454"/>
        </g>
        <g id="0uLn6BSvvEB8kgChiujNI6" title="2A14">
            <path style="stroke:black; fill:none;" d="M507.849,476.848 L507.849,514.567 L488.34,514.567 L488.34,520.95 L488.194,520.95 L436.867,520.95 L427.432,520.95 L427.432,507.382 L427.432,472.161 L457.73,472.161 L457.73,473.129 L457.73,476.848 L507.849,476.848"/>
        </g>
        <g id="0ClPCUC7jCQRnj1dhupHsu" title="2C01">
            <path style="stroke:black; fill:none;" d="M337.442,579.454 L311.487,579.454 L311.487,544.075 L337.442,544.075 L337.442,579.454"/>
        </g>
        <g id="0ClPCUC7jCQRnj1dhupHsn" title="2C02">
            <path style="stroke:black; fill:none;" d="M326.592,635.645 L291.638,635.645 L291.638,632.65 L291.638,600.281 L315.778,600.281 L315.778,599.622 L325.511,599.622 L325.511,600.281 L326.592,600.281 L326.592,632.65 L326.592,635.645"/>
        </g>
        <g id="0ClPCUC7jCQRnj1dhupHso" title="2C03">
            <path style="stroke:black; fill:none;" d="M310.168,579.454 L293.191,579.454 L293.191,562.903 L265.79,562.903 L265.79,539.501 L265.79,533.119 L265.79,498.207 L265.79,477.66 L278.539,477.66 L278.539,472.161 L301.488,472.161 L301.488,544.075 L304.552,544.075 L310.168,544.075 L310.168,579.454"/>
        </g>
        <g id="0ClPCUC7jCQRnj1dhupHst" title="2C04">
            <path style="stroke:black; fill:none;" d="M269.577,635.645 L255.366,635.645 L255.366,600.281 L264.769,600.281 L290.319,600.281 L290.319,632.363 L269.577,632.363 L269.577,635.645"/>
        </g>
        <g id="0ClPCUC7jCQRnj1dhupHse" title="2C05">
            <path style="stroke:black; fill:none;" d="M291.872,579.454 L274.47,579.454 L274.47,575.88 L265.79,575.88 L265.79,565.753 L265.79,564.222 L291.872,564.222 L291.872,579.454"/>
        </g>
        <g id="0ClPCUC7jCQRnj1dhupHsj" title="2C06">
            <path style="stroke:black; fill:none;" d="M254.047,635.645 L219.093,635.645 L219.093,600.281 L254.047,600.281 L254.047,635.645"/>
        </g>
        <g id="0ClPCUC7jCQRnj1dhupHsk" title="2C07">
            <path style="stroke:black; fill:none;" d="M264.471,579.454 L241.708,579.454 L241.708,539.566 L244.839,539.566 L244.839,538.247 L241.048,538.247 L235.113,538.247 L235.113,528.514 L244.452,528.514 L252.239,528.514 L252.239,527.195 L245.431,527.195 L245.431,515.518 L238.836,515.518 L238.836,498.867 L264.471,498.867 L264.471,533.119 L263.833,533.119 L263.833,539.501 L264.471,539.501 L264.471,563.562 L264.471,565.094 L250.749,565.094 L250.749,566.413 L264.471,566.413 L264.471,576.167 L264.471,579.454"/>
        </g>
        <g id="0ClPCUC7jCQRnj1dhupHsZ" title="2C08">
            <path style="stroke:black; fill:none;" d="M240.389,579.454 L218.349,579.454 L218.349,579.307 L218.349,537.703 L218.987,537.703 L218.987,531.32 L218.349,531.32 L218.349,498.867 L234.794,498.867 L234.794,515.518 L234.113,515.518 L234.113,516.837 L235.772,516.837 L237.857,516.837 L243.474,516.837 L243.474,526.557 L233.794,526.557 L233.794,539.566 L240.389,539.566 L240.389,579.454"/>
        </g>
        <g id="0ClPCUC7jCQRnj1dhupHsa" title="2C09">
            <path style="stroke:black; fill:none;" d="M217.774,635.645 L198.84,635.645 L198.84,632.363 L182.821,632.363 L182.821,600.281 L217.774,600.281 L217.774,635.645"/>
        </g>
        <g id="0ClPCUC7jCQRnj1dhupHsP" title="2C10">
            <path style="stroke:black; fill:none;" d="M189.267,579.454 L165.227,579.454 L165.227,542.628 L197.521,542.628 L197.521,575.88 L189.267,575.88 L189.267,579.454"/>
        </g>
        <g id="0ClPCUC7jCQRnj1dhupHsQ" title="2C11">
            <path style="stroke:black; fill:none;" d="M165.376,632.363 L165.376,600.281 L181.502,600.281 L181.502,632.363 L165.376,632.363"/>
        </g>
        <g id="0ClPCUC7jCQRnj1dhupHsV" title="2C12">
            <path style="stroke:black; fill:none;" d="M139.655,579.454 L139.655,563.86 L140.974,563.86 L140.974,579.454 L163.908,579.454 L163.908,542.628 L122.721,542.628 L122.721,545.585 L122.721,569.306 L122.721,576.167 L123.21,576.167 L123.21,579.816 L138.187,579.816 L138.187,579.454 L139.655,579.454"/>
        </g>
        <g id="0ClPCUC7jCQRnj1dhupHsG" title="2C13">
            <path style="stroke:black; fill:none;" d="M124.742,600.281 L137.528,600.281 L137.528,610.387 L144.548,610.387 L144.548,631.395 L144.548,632.363 L124.742,632.363 L124.742,600.281"/>
        </g>
        <g id="0ClPCUC7jCQRnj1dhupHsL" title="2C14">
            <path style="stroke:black; fill:none;" d="M118.317,636.012 L88.1074,636.012 L88.1074,600.281 L90.1498,600.281 L112.626,600.281 L112.626,599.622 L122.359,599.622 L122.359,600.281 L123.423,600.281 L123.423,632.363 L118.317,632.363 L118.317,636.012"/>
        </g>
        <g id="0ClPCUC7jCQRnj1dhupHsM" title="2C15">
            <path style="stroke:black; fill:none;" d="M90.8093,574.774 L90.8093,546.245 L121.402,546.245 L121.402,569.306 L120.763,569.306 L120.763,575.88 L118.317,575.88 L118.317,579.816 L93.2558,579.816 L93.2558,574.774 L90.8093,574.774"/>
        </g>
        <g id="0ClPCUC7jCQRnj1dhupHsB" title="2C16">
            <path style="stroke:black; fill:none;" d="M52.122,630.534 L52.122,619.896 L55.7705,619.896 L55.7705,600.281 L86.7884,600.281 L86.7884,636.012 L55.7705,636.012 L55.7705,630.534 L52.122,630.534"/>
        </g>
        <g id="0ClPCUC7jCQRnj1dhupHsC" title="2C17">
            <path style="stroke:black; fill:none;" d="M52.122,575.055 L52.122,511.355 L89.4903,511.355 L89.4903,545.585 L89.4903,576.093 L91.9368,576.093 L91.9368,579.816 L89.4903,579.816 L89.4903,598.962 L87.4479,598.962 L55.7705,598.962 L55.7705,591.41 L52.122,591.41 L52.122,580.773 L55.7705,580.773 L55.7705,575.055 L52.122,575.055"/>
        </g>
        <g id="0ClPCUC7jCQRnj1dhupHs1" title="2C18">
            <path style="stroke:black; fill:none;" d="M90.8093,511.355 L121.402,511.355 L121.402,544.926 L90.8093,544.926 L90.8093,511.355"/>
        </g>
        <g id="0ClPCUC7jCQRnj1dhupHs2" title="2C19">
            <path style="stroke:black; fill:none;" d="M122.721,511.355 L197.521,511.355 L197.521,541.309 L122.721,541.309 L122.721,511.355"/>
        </g>
        <g id="0ClPCUC7jCQRnj1dhupHs7" title="2C22">
            <path style="stroke:black; fill:none;" d="M218.349,472.161 L219.123,472.161 L262.578,472.161 L262.578,473.618 L264.471,473.618 L264.471,477.001 L264.471,497.548 L237.857,497.548 L235.772,497.548 L218.349,497.548 L218.349,472.161"/>
        </g>
        <g id="0ClPCUC7jCQRnj1dhupHny" title="2C23">
            <path style="stroke:black; fill:none;" d="M337.442,495.995 L337.442,476.561 L337.442,476.152 L305.531,476.152 L305.531,511.312 L320.806,511.312 L320.806,495.995 L337.442,495.995"/>
        </g>
        <g id="0ClPCUC7jCQRnj1dhupHnn" title="2C24">
            <path style="stroke:black; fill:none;" d="M337.442,512.631 L337.442,542.756 L305.531,542.756 L305.531,512.631 L337.442,512.631"/>
        </g>
        <g id="0ClPCUC7jCQRnj1dhupHdj" title="2CC1">
            <path style="stroke:black; fill:none;" d="M198.84,580.773 L198.84,472.422 L217.03,472.422 L217.03,580.773 L198.84,580.773"/>
        </g>
        <g id="0ClPCUC7jCQRnj1dhupHdk" title="2CC3">
            <path style="stroke:black; fill:none;" d="M164.057,580.773 L264.11,580.773 L264.11,598.962 L164.057,598.962 L164.057,580.773"/>
        </g>
        <g id="0ClPCUC7jCQRnj1dhupHdZ" title="2CC4">
            <path style="stroke:black; fill:none;" d="M164.057,632.363 L163.291,632.363 L145.867,632.363 L145.867,609.068 L138.847,609.068 L138.847,599.622 L138.847,580.773 L140.315,580.773 L164.057,580.773 L164.057,597.994 L164.057,599.622 L164.057,632.363"/>
        </g>
        <g id="0ClPCUC7jCQRnj1dhupHcN" title="2CC2">
            <path style="stroke:black; fill:none;" d="M265.429,580.773 L274.183,580.773 L292.532,580.773 L310.828,580.773 L337.729,580.773 L342.048,580.773 L342.335,580.773 L342.335,598.962 L327.252,598.962 L325.511,598.962 L325.511,599.622 L315.778,599.622 L315.778,598.962 L290.979,598.962 L265.429,598.962 L265.429,580.773"/>
        </g>
        <g id="0ClPCUC7jCQRnj1dhupHc2" title="2D01">
            <path style="stroke:black; fill:none;" d="M297.223,351.181 L297.223,327.971 L337.442,327.971 L337.442,351.181 L297.223,351.181"/>
        </g>
        <g id="0ClPCUC7jCQRnj1dhupHXx" title="2D02">
            <path style="stroke:black; fill:none;" d="M297.223,378.455 L297.223,352.5 L337.442,352.5 L337.442,378.455 L297.223,378.455"/>
        </g>
        <g id="0ClPCUC7jCQRnj1dhupHXy" title="2D03">
            <path style="stroke:black; fill:none;" d="M306.685,405.492 L335.261,405.492 L335.261,401.431 L337.442,401.431 L337.442,379.774 L297.223,379.774 L297.223,401.431 L306.685,401.431 L306.685,405.492"/>
        </g>
        <g id="0ClPCUC7jCQRnj1dhupHXn" title="2D04">
            <path style="stroke:black; fill:none;" d="M277.449,405.492 L290.748,405.492 L290.748,401.431 L295.904,401.431 L295.904,379.114 L295.904,351.84 L295.904,327.971 L266.694,327.971 L266.694,401.431 L277.449,401.431 L277.449,405.492"/>
        </g>
        <g id="0ClPCUC7jCQRnj1dhupHXo" title="2D05">
            <path style="stroke:black; fill:none;" d="M52.122,401.431 L52.122,331.864 L196.394,331.864 L196.394,400.527 L194.234,400.527 L189.267,400.527 L189.267,403.59 L189.267,406.324 L190.586,406.324 L190.586,403.877 L193.947,403.877 L193.947,406.324 L196.394,406.324 L196.394,412.7 L196.394,432.166 L196.394,471.955 L193.947,471.955 L193.947,476.848 L196.394,476.848 L196.394,510.036 L122.061,510.036 L90.1498,510.036 L52.122,510.036 L52.122,476.848 L55.7705,476.848 L55.7705,471.955 L52.122,471.955 L52.122,406.324 L55.7705,406.324 L55.7705,401.431 L52.122,401.431"/>
            <path style="stroke:black; fill:none;" d="M118.317,401.431 L118.317,406.324 L123.21,406.324 L123.21,401.431 L118.317,401.431"/>
            <path style="stroke:black; fill:none;" d="M118.317,471.955 L118.317,476.848 L123.21,476.848 L123.21,471.955 L118.317,471.955"/>
        </g>
        <g id="0ClPCUC7jCQRnj1dhupHXt" title="2D06">
            <path style="stroke:black; fill:none;" d="M197.521,302.399 L197.521,329.417 L158.206,329.417 L158.206,296.804 L193.947,296.804 L193.947,302.399 L197.521,302.399"/>
        </g>
        <g id="0ClPCUC7jCQRnj1dhupHXe" title="2D07">
            <path style="stroke:black; fill:none;" d="M156.887,329.417 L127.412,329.417 L127.412,296.804 L156.887,296.804 L156.887,329.417"/>
        </g>
        <g id="0ClPCUC7jCQRnj1dhupHXj" title="2D08">
            <path style="stroke:black; fill:none;" d="M96.0215,329.417 L96.0215,296.804 L118.317,296.804 L118.317,302.399 L126.093,302.399 L126.093,329.417 L96.0215,329.417"/>
        </g>
        <g id="0ClPCUC7jCQRnj1dhupHXk" title="2D09">
            <path style="stroke:black; fill:none;" d="M52.122,329.417 L52.122,302.399 L55.7705,302.399 L55.7705,293.251 L94.7025,293.251 L94.7025,296.144 L94.7025,329.417 L52.122,329.417"/>
        </g>
        <g id="0ClPCUC7jCQRnj1dhupHXZ" title="2D10">
            <path style="stroke:black; fill:none;" d="M52.122,263.604 L52.122,252.967 L55.7705,252.967 L55.7705,247.405 L94.7025,247.405 L94.7025,291.932 L55.7705,291.932 L55.7705,263.604 L52.122,263.604"/>
        </g>
        <g id="0ClPCUC7jCQRnj1dhupHXa" title="2D11">
            <path style="stroke:black; fill:none;" d="M55.7705,207.224 L94.7025,207.224 L94.7025,209.909 L94.7025,218.674 L94.7025,219.642 L94.7025,220.302 L94.7025,246.086 L55.4833,246.086 L55.4833,245.639 L52.122,245.639 L52.122,211.132 L55.7705,211.132 L55.7705,207.224"/>
        </g>
        <g id="0ClPCUC7jCQRnj1dhupHXP" title="2D12">
            <path style="stroke:black; fill:none;" d="M96.0215,207.224 L116.189,207.224 L116.189,210.95 L116.189,219.642 L94.7025,219.642 L94.7025,209.909 L96.0215,209.909 L96.0215,207.224"/>
        </g>
        <g id="0ClPCUC7jCQRnj1dhupHXT" title="2D13">
            <path style="stroke:black; fill:none;" d="M103.922,246.086 L96.0215,246.086 L96.0215,220.961 L96.1679,220.961 L116.189,220.961 L116.189,243.363 L103.922,243.363 L103.922,246.086"/>
        </g>
        <g id="0ClPCUC7jCQRnj1dhupHXU" title="2D14">
            <path style="stroke:black; fill:none;" d="M176.14,207.224 L186.777,207.224 L186.777,210.95 L186.777,246.086 L146.718,246.086 L146.718,211.238 L176.14,211.238 L176.14,207.224"/>
        </g>
        <g id="0ClPCUC7jCQRnj1dhupHXJ" title="2D15">
            <path style="stroke:black; fill:none;" d="M198.84,207.224 L218.104,207.224 L218.104,244.671 L218.104,246.086 L188.096,246.086 L188.096,211.238 L198.84,211.238 L198.84,207.224"/>
        </g>
        <g id="0ClPCUC7jCQRnj1dhupHXK" title="2D16">
            <path style="stroke:black; fill:none;" d="M126.898,207.224 L137.535,207.224 L137.535,211.238 L145.399,211.238 L145.399,246.086 L117.508,246.086 L117.508,244.256 L117.508,220.302 L117.508,211.238 L126.898,211.238 L126.898,207.224"/>
        </g>
        <g id="0ClPCUC7jCQRnj1dhupHX9" title="2D17">
            <path style="stroke:black; fill:none;" d="M219.423,207.224 L245.016,207.224 L245.016,246.086 L224.465,246.086 L224.465,244.012 L219.423,244.012 L219.423,207.224"/>
        </g>
        <g id="0ClPCUC7jCQRnj1dhupHXA" title="2D18">
            <path style="stroke:black; fill:none;" d="M217.03,307.143 L216.328,307.143 L216.328,295.485 L198.553,295.485 L194.234,295.485 L157.547,295.485 L127.124,295.485 L118.604,295.485 L96.0215,295.485 L96.0215,292.592 L96.0215,247.405 L104.209,247.405 L116.849,247.405 L146.059,247.405 L187.437,247.405 L218.763,247.405 L223.805,247.405 L245.675,247.405 L276.023,247.405 L276.023,259.614 L276.023,297.506 L269.577,297.506 L269.577,306.101 L269.577,307.143 L217.03,307.143"/>
        </g>
        <g id="0ClPCUC7jCQRnj1dhupHXF" title="2D19">
            <path style="stroke:black; fill:none;" d="M246.335,207.224 L269.577,207.224 L269.577,211.266 L276.023,211.266 L276.023,246.086 L246.335,246.086 L246.335,207.224"/>
        </g>
        <g id="0ClPCUC7jCQRnj1dhupHX0" title="2D20">
            <path style="stroke:black; fill:none;" d="M277.342,207.224 L337.442,207.224 L337.442,211.239 L341.016,211.239 L341.016,259.614 L277.342,259.614 L277.342,246.745 L277.342,210.979 L277.342,207.224"/>
        </g>
        <g id="0ClPCUC7jCQRnj1dhupHZb" title="2D04A">
            <path style="stroke:black; fill:none;" d="M265.375,401.431 L265.375,327.971 L218.495,327.971 L218.349,327.971 L218.349,405.492 L219.123,405.492 L261.511,405.492 L261.511,401.431 L265.375,401.431"/>
        </g>
        <g id="0ClPCUC7jCQRnj1dhupMOD" title="2DC1">
            <path style="stroke:black; fill:none;" d="M342.335,326.652 L217.03,326.652 L217.03,308.462 L342.335,308.462 L342.335,326.652"/>
        </g>
        <g id="0ClPCUC7jCQRnj1dhupMO2" title="2DC2">
            <path style="stroke:black; fill:none;" d="M217.657,469.874 L217.657,471.103 L198.84,471.103 L198.84,432.166 L197.713,432.166 L197.713,412.7 L198.84,412.7 L198.84,404.409 L198.84,402.441 L198.84,330.077 L198.84,302.112 L198.84,296.804 L215.009,296.804 L215.009,307.803 L217.03,307.803 L217.03,325.684 L217.03,327.311 L217.03,406.151 L217.657,406.811 L217.657,407.779 L217.657,469.874"/>
        </g>
        <g id="0ClPCUC7jCQRnj1dhupMO7" title="2BC1">
            <path style="stroke:black; fill:none;" d="M374.247,374.827 L374.247,346.011 L364.269,346.011 L342.335,346.011 L342.335,396.219 L363.618,396.219 L363.618,374.827 L374.247,374.827"/>
        </g>
        <g id="0ClPCUC7jCQRnj1dhupMRy" title="2BC2">
            <path style="stroke:black; fill:none;" d="M342.335,207.224 L363.609,207.224 L363.609,210.213 L363.609,237.572 L374.247,237.572 L374.247,256.127 L363.609,256.127 L363.609,300.782 L363.609,344.692 L342.335,344.692 L342.335,326.939 L342.335,325.311 L342.335,309.803 L342.335,308.175 L342.335,297.793 L342.335,259.614 L342.335,210.952 L342.335,207.224"/>
        </g>
        <g id="0ClPCUC7jCQRnj1dhupMRn" title="2BC3">
            <path style="stroke:black; fill:none;" d="M527.06,237.572 L527.06,256.127 L516.433,256.127 L514.806,256.127 L498.925,256.127 L497.297,256.127 L470.747,256.127 L443.835,256.127 L416.561,256.127 L388.819,256.127 L388.819,258.521 L385.096,258.521 L385.096,256.127 L375.566,256.127 L375.566,237.572 L429.751,237.572 L464.364,237.572 L501.807,237.572 L515.912,237.572 L527.06,237.572"/>
        </g>
        <g id="0ClPCUC7jCQRnj1dhupMRo" title="2BC4">
            <path style="stroke:black; fill:none;" d="M497.956,327.956 L497.956,256.127 L516.146,256.127 L516.146,327.956 L497.956,327.956"/>
        </g>
        <g id="0ClPCUC7jCQRnj1dhupMRt" title="2BC5">
            <path style="stroke:black; fill:none;" d="M534.016,364.201 L512.296,364.201 L482.086,364.201 L451.664,364.201 L421.454,364.201 L416.199,364.201 L416.199,364.054 L416.199,346.011 L427.347,346.011 L455.536,346.011 L477.044,346.011 L479.299,346.011 L497.956,346.011 L497.956,329.275 L516.146,329.275 L516.146,350.373 L534.016,350.373 L534.016,364.201"/>
        </g>
        <g id="0ClPCUC7jCQRnj1dhupMRe" title="2BC6">
            <path style="stroke:black; fill:none;" d="M390.032,374.827 L375.566,374.827 L375.566,346.011 L389.479,346.011 L414.88,346.011 L414.88,365.52 L390.032,365.52 L390.032,374.827"/>
        </g>
        <g id="0ClPCUC7jCQRnj1dhupMRk" title="2B01">
            <path style="stroke:black; fill:none;" d="M554.472,328.115 L554.472,338.778 L550.823,338.778 L550.823,349.054 L534.676,349.054 L517.465,349.054 L517.465,328.615 L517.465,321.057 L550.823,321.057 L550.823,328.115 L554.472,328.115"/>
        </g>
        <g id="0ClPCUC7jCQRnj1dhupMRd" title="2B2">
            <path style="stroke:black; fill:none;" d="M550.823,364.201 L535.335,364.201 L535.335,350.373 L550.823,350.373 L550.823,364.201"/>
        </g>
        <g id="0ClPCUC7jCQRnj1dhupMRO" title="2B3">
            <path style="stroke:black; fill:none;" d="M554.472,406.324 L554.472,415.35 L527.161,415.35 L526.698,415.35 L526.698,416.978 L459.049,416.978 L459.049,406.324 L459.644,406.324 L512.955,406.324 L512.955,401.718 L512.955,365.52 L534.676,365.52 L550.823,365.52 L550.823,386.645 L554.472,386.645 L554.472,397.282 L550.812,397.282 L550.812,406.324 L554.472,406.324"/>
        </g>
        <g id="0ClPCUC7jCQRnj1dhupMRT" title="2B4">
            <path style="stroke:black; fill:none;" d="M511.636,401.431 L482.746,401.431 L482.746,365.52 L511.636,365.52 L511.636,401.431"/>
        </g>
        <g id="0ClPCUC7jCQRnj1dhupMRU" title="2B5">
            <path style="stroke:black; fill:none;" d="M496.637,344.692 L480.192,344.692 L480.192,316.27 L496.637,316.27 L496.637,344.692"/>
        </g>
        <g id="0ClPCUC7jCQRnj1dhupMRJ" title="2B6">
            <path style="stroke:black; fill:none;" d="M476.15,344.692 L456.195,344.692 L456.195,316.27 L476.15,316.27 L476.15,344.692"/>
        </g>
        <g id="0ClPCUC7jCQRnj1dhupMRK" title="2B7">
            <path style="stroke:black; fill:none;" d="M481.427,401.431 L452.323,401.431 L452.323,365.52 L481.427,365.52 L481.427,401.431"/>
        </g>
        <g id="0ClPCUC7jCQRnj1dhupMR9" title="2B8">
            <path style="stroke:black; fill:none;" d="M454.876,344.692 L428.007,344.692 L428.007,295.272 L454.876,295.272 L454.876,344.692"/>
        </g>
        <g id="0ClPCUC7jCQRnj1dhupMRA" title="2B9">
            <path style="stroke:black; fill:none;" d="M422.114,365.52 L451.004,365.52 L451.004,401.431 L422.114,401.431 L422.114,365.52"/>
        </g>
        <g id="0ClPCUC7jCQRnj1dhupMRF" title="2B10">
            <path style="stroke:black; fill:none;" d="M426.688,344.692 L415.54,344.692 L390.138,344.692 L390.138,302.718 L397.149,302.718 L417.221,302.718 L417.221,295.272 L426.688,295.272 L426.688,344.692"/>
        </g>
        <g id="0ClPCUC7jCQRnj1dhupMR0" title="2B11">
            <path style="stroke:black; fill:none;" d="M393.862,401.431 L405.419,401.431 L420.795,401.431 L420.795,365.52 L415.54,365.52 L413.912,365.52 L390.032,365.52 L390.032,373.859 L390.032,375.486 L390.032,394.383 L393.862,394.383 L393.862,401.431"/>
        </g>
        <g id="0ClPCUC7jCQRnj1dhupMR5" title="2B12">
            <path style="stroke:black; fill:none;" d="M364.928,344.692 L364.928,301.442 L388.819,301.442 L388.819,344.692 L364.928,344.692"/>
        </g>
        <g id="0ClPCUC7jCQRnj1dhupMR6" title="2B13">
            <path style="stroke:black; fill:none;" d="M364.928,300.123 L364.928,257.446 L374.906,257.446 L383.777,257.446 L383.777,259.84 L388.819,259.84 L388.819,297.793 L388.819,300.123 L364.928,300.123"/>
        </g>
        <g id="0ClPCUC7jCQRnj1dhupMQx" title="2B14">
            <path style="stroke:black; fill:none;" d="M390.138,257.446 L415.902,257.446 L415.902,294.613 L415.902,301.399 L397.436,301.399 L397.436,297.506 L390.138,297.506 L390.138,259.18 L390.138,257.446"/>
        </g>
        <g id="0ClPCUC7jCQRnj1dhupMQy" title="2B15">
            <path style="stroke:black; fill:none;" d="M417.221,257.446 L443.175,257.446 L443.175,293.953 L417.221,293.953 L417.221,257.446"/>
        </g>
        <g id="0ClPCUC7jCQRnj1dhupMQn" title="2B16">
            <path style="stroke:black; fill:none;" d="M430.411,207.224 L463.705,207.224 L463.705,236.253 L430.411,236.253 L430.411,207.224"/>
        </g>
        <g id="0ClPCUC7jCQRnj1dhupMQo" title="2B17">
            <path style="stroke:black; fill:none;" d="M444.494,257.446 L470.087,257.446 L470.087,293.953 L444.494,293.953 L444.494,257.446"/>
        </g>
        <g id="0ClPCUC7jCQRnj1dhupMQt" title="2B18">
            <path style="stroke:black; fill:none;" d="M483.224,207.224 L493.861,207.224 L493.861,211.239 L501.148,211.239 L501.148,236.253 L465.024,236.253 L465.024,207.224 L473.385,207.224 L473.385,211.239 L483.224,211.239 L483.224,207.224"/>
        </g>
        <g id="0ClPCUC7jCQRnj1dhupMQe" title="2B19">
            <path style="stroke:black; fill:none;" d="M496.637,257.446 L496.637,293.953 L471.406,293.953 L471.406,257.446 L496.637,257.446"/>
        </g>
        <g id="0ClPCUC7jCQRnj1dhupMQj" title="2B20">
            <path style="stroke:black; fill:none;" d="M515.252,236.253 L502.467,236.253 L502.467,211.239 L515.252,211.239 L515.252,236.253"/>
        </g>
        <g id="0ClPCUC7jCQRnj1dhupMQk" title="2B21">
            <path style="stroke:black; fill:none;" d="M554.472,211.239 L554.472,237.725 L549.898,237.725 L549.898,236.253 L527.719,236.253 L516.571,236.253 L516.571,211.239 L554.472,211.239"/>
        </g>
        <g id="0ClPCUC7jCQRnj1dhupMQZ" title="2B22">
            <path style="stroke:black; fill:none;" d="M554.472,239.044 L554.472,257.085 L528.379,257.085 L528.379,256.415 L528.379,237.572 L549.898,237.572 L549.898,239.044 L554.472,239.044"/>
        </g>
        <g id="0ClPCUC7jCQRnj1dhupMQa" title="2B23">
            <path style="stroke:black; fill:none;" d="M554.472,261.127 L554.472,291.437 L517.465,291.437 L517.465,261.127 L554.472,261.127"/>
        </g>
        <g id="0ClPCUC7jCQRnj1dhupMQP" title="2B24">
            <path style="stroke:black; fill:none;" d="M554.472,292.756 L554.472,319.738 L517.465,319.738 L517.465,292.756 L554.472,292.756"/>
        </g>
        <g id="0ClPCUC7jCQRnj1dhupMQQ" title="2B25">
            <path style="stroke:black; fill:none;" d="M496.637,295.272 L496.637,314.951 L479.299,314.951 L477.044,314.951 L456.195,314.951 L456.195,295.272 L470.747,295.272 L473.385,295.272 L473.385,302.399 L478.278,302.399 L478.278,295.272 L496.637,295.272"/>
        </g>
        <g id="0ClPCUC7jCQRnj1dhupMQV" title="2BS2">
            <path style="stroke:black; fill:none;" d="M429.092,210.872 L429.092,236.253 L364.928,236.253 L364.928,210.872 L429.092,210.872"/>
        </g>
        <g id="0ClPCUC7jCQRnj1dhupMQK" title="2CS3">
            <path style="stroke:black; fill:none;" d="M173.098,637.511 L173.098,697.675 L147.356,697.675 L147.356,633.682 L162.631,633.682 L162.631,634.278 L162.631,637.511 L173.098,637.511"/>
        </g>
        <g id="0ClPCUC7jCQRnj1dhupMQD" title="2AC1-A">
            <path style="stroke:black; fill:none;" d="M526.038,459.356 L526.038,418.297 L508.147,418.297 L457.73,418.297 L457.73,406.811 L405.419,406.811 L393.487,406.811 A52.4624,52.4624 0 0,0 393.303,407.048 A52.4624,52.4624 0 0,0 392.839,470.622 A52.4624,52.4624 0 0,0 393.005,470.842 L405.419,470.842 L426.773,470.842 L457.73,470.842 L457.73,459.356 L508.508,459.356 L526.038,459.356"/>
        </g>
        <g id="0ClPCUC7jCQRnj1dhupMQE" title="2AC1-B">
            <path style="stroke:black; fill:none;" d="M217.657,470.842 L217.657,406.811 L260.543,406.811 L278.417,406.811 L289.78,406.811 L307.653,406.811 L335.549,406.811 L341.39,406.811 A52.4624,52.4624 0 0,1 341.575,407.048 A52.4624,52.4624 0 0,1 342.039,470.622 A52.4624,52.4624 0 0,1 341.873,470.842 L338.101,470.842 L306.18,470.842 L300.148,470.842 L279.507,470.842 L262.578,470.842 L217.657,470.842"/>
        </g>
        <g id="1gvYwVnFXA491$ELl$CPOU" title="2CC5">
            <path style="stroke:black; fill:none;" d="M137.528,598.962 L137.528,581.135 L122.923,581.135 L118.604,581.135 L92.5963,581.135 L90.8093,581.135 L90.8093,598.962 L112.626,598.962 L112.626,599.622 L122.359,599.622 L122.359,598.962 L124.082,598.962 L137.528,598.962"/>
        </g>
        <g id="1gvYwVnFXA491$ELl$CPR0" title="2D21">
            <path style="stroke:black; fill:none;" d="M341.016,259.614 L341.016,297.506 L337.442,297.506 L337.442,307.143 L277.342,307.143 L277.342,306.101 L277.342,297.793 L277.342,259.614 L341.016,259.614"/>
        </g>
        <g id="0_IXpwL5b29BZ7C0XgKBsS" title="2R02">
            <path style="stroke:black; fill:none;" d="M341.091,204.384 L341.091,100.427 L0,100.427 L1.1255e-11,700 L140.868,700 L140.868,638.852 L118.604,638.852 L87.4479,638.852 L55.4833,638.852 L49.2819,638.852 L49.2819,630.821 L49.2819,619.609 L49.2819,591.697 L49.2819,580.486 L49.2819,575.343 L49.2819,510.695 L49.2819,476.561 L49.2819,472.242 L49.2819,406.037 L49.2819,401.718 L49.2819,331.204 L49.2819,330.077 L49.2819,302.112 L49.2819,263.892 L49.2819,252.68 L49.2819,245.926 L49.2819,210.845 L49.2819,204.384 L55.4833,204.384 L95.362,204.384 L116.477,204.384 L126.611,204.384 L137.822,204.384 L175.853,204.384 L187.064,204.384 L198.553,204.384 L218.763,204.384 L245.675,204.384 L269.864,204.384 L277.055,204.384 L337.729,204.384 L340.42,204.384 L341.091,204.384"/>
        </g>
        <g id="0_IXpwL5b29BZ7C0XgKBsG" title="2R01">
            <path style="stroke:black; fill:none;" d="M179.587,700 L179.587,638.485 L273.226,638.485 L273.226,700 L179.587,700"/>
        </g>
    </g>
</svg>
