<svg xmlns="http://www.w3.org/2000/svg" xmlns:xlink="http://www.w3.org/1999/xlink">
    <g id="product-e8588825-8be1-496d-b15d-360d83eba4d9">
        <g id="0ztdC3L1HAzhbhMHypqbH5" title="1AC1">
            <path style="stroke:black; fill:none;" d="M555.892,459.356 L555.892,418.19 L554.472,418.19 L554.472,405.958 L551.11,405.958 L534.708,405.958 L534.708,410.851 L532.421,410.851 L532.421,405.298 L532.421,402.894 L532.421,395.682 L514.232,395.682 L514.232,405.298 L514.232,410.851 L511.945,410.851 L511.945,405.298 L497.491,405.298 L497.491,410.851 L495.204,410.851 L495.204,405.958 L477.991,405.958 L474.927,405.958 L474.927,410.851 L472.64,410.851 L472.64,405.298 L472.64,401.352 L472.64,395.682 L454.451,395.682 L454.451,401.352 L454.451,410.851 L452.164,410.851 L452.164,405.67 L451.399,405.67 L451.399,403.511 L438.475,403.511 L438.475,405.298 L437.711,405.298 L437.711,410.851 L435.424,410.851 L435.424,405.958 L395.042,405.958 L395.042,410.851 L392.542,410.851 L392.542,401.958 L392.543,395.702 L389.479,395.702 L381.688,395.702 L381.688,395.043 L371.962,395.043 L371.962,395.702 L363.618,395.702 L363.618,376.146 L342.335,376.146 L342.335,378.684 L338.761,378.684 L338.761,388.991 L342.335,388.991 L342.335,405.064 L342.335,410.851 L340.176,410.851 L340.176,466.696 L342.335,466.696 L342.335,471.876 L342.335,474.035 L389.341,474.035 L392.543,474.035 L392.543,471.876 L392.543,466.696 L395.042,466.696 L395.042,471.589 L427.06,471.589 L427.06,466.696 L429.347,466.696 L429.347,471.589 L439.42,471.589 L453.631,471.589 L463.705,471.589 L463.705,466.696 L465.992,466.696 L465.992,471.589 L477.991,471.589 L498.717,471.589 L498.717,466.696 L501.004,466.696 L501.004,471.589 L506.87,471.589 L519.193,471.589 L519.193,466.696 L521.48,466.696 L521.48,471.589 L551.11,471.589 L554.472,471.589 L554.472,459.356 L555.892,459.356"/>
        </g>
        <g id="0ztdC3L1HAzhbhMHypqcha" title="1AC2">
            <path style="stroke:black; fill:none;" d="M338.761,490.257 L338.761,476.12 L342.335,476.12 L342.335,474.035 L390.309,474.035 L390.309,475.822 L390.309,497.245 L361.216,497.245 L361.216,550.048 L361.184,550.048 L342.335,550.048 L342.335,490.257 L338.761,490.257"/>
        </g>
        <g id="0ztdC3L1HAzhbhMHypqchZ" title="1AC3">
            <path style="stroke:black; fill:none;" d="M360.525,631.816 L342.489,631.816 L340.862,631.816 L329.294,631.816 L329.294,613.807 L342.335,613.807 L342.335,584.789 L342.335,580.119 L342.335,551.367 L360.525,551.367 L360.525,570.216 L360.525,603.085 L360.525,625.848 L360.525,631.816"/>
        </g>
        <g id="0ztdC3L1HAzhbhMHypqchk" title="1AC4">
            <path style="stroke:black; fill:none;" d="M361.844,569.557 L361.844,551.367 L416.582,551.367 L416.582,569.557 L361.844,569.557"/>
        </g>
        <g id="0ztdC3L1HAzhbhMHypqchj" title="1AC5">
            <path style="stroke:black; fill:none;" d="M520.933,631.816 L507.53,631.816 L507.53,603.83 L507.53,571.812 L507.53,566.77 L507.53,540.858 L506.87,540.858 L506.87,472.908 L519.481,472.908 L520.933,472.908 L520.933,568.589 L520.933,570.216 L520.933,601.702 L520.933,631.816"/>
        </g>
        <g id="0ztdC3L1HAzhbhMHypqcZz" title="1A01">
            <path style="stroke:black; fill:none;" d="M474.704,540.198 L474.704,476.482 L478.278,476.482 L478.278,472.908 L499.004,472.908 L500.717,472.908 L506.87,472.908 L506.87,540.198 L474.704,540.198"/>
        </g>
        <g id="0ztdC3L1HAzhbhMHypqcZa" title="1A02">
            <path style="stroke:black; fill:none;" d="M554.472,555.906 L554.472,569.557 L520.933,569.557 L520.933,472.908 L521.193,472.908 L550.823,472.908 L550.823,480.629 L554.472,480.629 L554.472,491.266 L550.823,491.266 L550.823,539.134 L554.472,539.134 L554.472,549.771 L550.823,549.771 L550.823,555.906 L554.472,555.906"/>
        </g>
        <g id="0ztdC3L1HAzhbhMHypqcZZ" title="1A03">
            <path style="stroke:black; fill:none;" d="M474.704,571.152 L474.704,541.517 L506.211,541.517 L506.211,566.11 L504.11,566.11 L504.11,571.152 L477.991,571.152 L474.704,571.152"/>
        </g>
        <g id="0ztdC3L1HAzhbhMHypqcZk" title="1A04">
            <path style="stroke:black; fill:none;" d="M554.472,570.876 L554.472,601.043 L522.252,601.043 L522.252,570.876 L554.472,570.876"/>
        </g>
        <g id="0ztdC3L1HAzhbhMHypqcZj" title="1A05">
            <path style="stroke:black; fill:none;" d="M506.211,572.471 L506.211,603.17 L474.704,603.17 L474.704,580.407 L478.278,580.407 L478.278,572.471 L504.77,572.471 L506.211,572.471"/>
        </g>
        <g id="0ztdC3L1HAzhbhMHypqcZe" title="1A06">
            <path style="stroke:black; fill:none;" d="M554.472,602.362 L554.472,631.997 L550.823,631.997 L550.823,635.645 L523.773,635.645 L523.773,633.236 L522.252,633.236 L522.252,602.362 L554.472,602.362"/>
        </g>
        <g id="0ztdC3L1HAzhbhMHypqcYN" title="1A07">
            <path style="stroke:black; fill:none;" d="M492.808,635.645 L482.171,635.645 L482.171,631.816 L474.704,631.816 L474.704,604.489 L506.211,604.489 L506.211,631.816 L503.291,631.816 L501.663,631.816 L492.808,631.816 L492.808,635.645"/>
        </g>
        <g id="0ztdC3L1HAzhbhMHypqcYI" title="1A08">
            <path style="stroke:black; fill:none;" d="M438.452,635.645 L401.584,635.645 L401.584,606.457 L438.452,606.457 L438.452,635.645"/>
        </g>
        <g id="0ztdC3L1HAzhbhMHypqcYH" title="1A09">
            <path style="stroke:black; fill:none;" d="M362.833,635.645 L392.543,635.645 L392.543,631.997 L397.542,631.997 L397.542,603.745 L361.844,603.745 L361.844,625.848 L362.833,625.848 L362.833,633.236 L362.833,635.645"/>
        </g>
        <g id="0ztdC3L1HAzhbhMHypqcYS" title="1A10">
            <path style="stroke:black; fill:none;" d="M401.584,605.138 L427.539,605.138 L427.539,584.023 L438.452,584.023 L438.452,570.876 L416.582,570.876 L398.499,570.876 L398.499,571.908 L398.499,585.247 L401.584,585.247 L401.584,605.138"/>
        </g>
        <g id="0ztdC3L1HAzhbhMHypqcYR" title="1A11">
            <path style="stroke:black; fill:none;" d="M438.452,585.342 L438.452,605.138 L428.858,605.138 L428.858,585.342 L438.452,585.342"/>
        </g>
        <g id="0ztdC3L1HAzhbhMHypqcY6" title="1A12">
            <path style="stroke:black; fill:none;" d="M361.844,602.426 L361.844,570.876 L391.585,570.876 L391.585,571.908 L391.585,586.204 L397.542,586.204 L397.542,602.426 L361.844,602.426"/>
        </g>
        <g id="0ztdC3L1HAzhbhMHypqcY5" title="1A13">
            <path style="stroke:black; fill:none;" d="M391.628,550.048 L391.628,531.199 L415.263,531.199 L415.263,550.048 L391.628,550.048"/>
        </g>
        <g id="0ztdC3L1HAzhbhMHypqcY0" title="1A14">
            <path style="stroke:black; fill:none;" d="M391.628,529.88 L391.628,502.649 L419.667,502.649 L419.667,529.88 L391.628,529.88"/>
        </g>
        <g id="0ztdC3L1HAzhbhMHypqcYF" title="1A15">
            <path style="stroke:black; fill:none;" d="M391.628,476.482 L418.348,476.482 L418.348,501.33 L391.628,501.33 L391.628,476.482"/>
        </g>
        <g id="0ztdC3L1HAzhbhMHypqcY9" title="1DC1">
            <path style="stroke:black; fill:none;" d="M123.391,471.589 L118.604,471.589 L93.2345,471.589 L57.6639,471.589 L51.1646,471.589 L37.3576,471.589 L37.3576,456.314 L43.1017,456.314 L43.1017,421.232 L37.3576,421.232 L37.3576,405.958 L51.1646,405.958 L58.0362,405.958 L93.2345,405.958 L118.641,405.958 L122.731,405.958 L124.55,405.958 L140.431,405.958 L142.059,405.958 L166.418,405.958 L190.224,405.958 L190.224,403.511 L193.947,403.511 L193.947,405.958 L198.553,405.958 L229.879,405.958 L263.599,405.958 L269.864,405.958 L273.353,405.958 L273.353,410.851 L275.853,410.851 L275.853,405.298 L275.853,401.352 L275.853,399.831 L294.042,399.831 L294.042,401.958 L294.042,410.851 L296.542,410.851 L296.542,405.958 L337.729,405.958 L339.889,405.958 L339.889,410.563 L340.176,410.563 L340.176,466.983 L339.889,466.983 L339.889,471.589 L296.542,471.589 L296.542,466.696 L294.042,466.696 L294.042,471.876 L294.042,472.243 L294.042,475.588 L294.042,477.716 L275.853,477.716 L275.853,476.195 L275.853,472.243 L275.853,471.871 L275.853,466.696 L273.353,466.696 L273.353,471.584 L269.886,471.584 L263.599,471.584 L229.879,471.584 L198.553,471.584 L194.234,471.584 L169.141,471.584 L141.4,471.584 L141.4,477.785 L142.059,477.785 L142.059,487.518 L141.4,487.518 L141.4,488.582 L123.391,488.582 L123.391,476.195 L123.391,471.589"/>
        </g>
        <g id="0ztdC3L1HAzhbhMHypqcaa" title="1DC2">
            <path style="stroke:black; fill:none;" d="M294.042,479.035 L294.042,515.946 L275.853,515.946 L275.853,479.035 L294.042,479.035"/>
        </g>
        <g id="0ztdC3L1HAzhbhMHypqcaZ" title="1DC3">
            <path style="stroke:black; fill:none;" d="M295.361,515.946 L295.361,506.627 L315.21,506.627 L315.21,508.372 L315.21,534.135 L300.616,534.135 L276.278,534.135 L276.278,536.528 L272.555,536.528 L272.555,534.135 L243.218,534.135 L209.498,534.135 L175.779,534.135 L141.4,534.135 L141.4,515.946 L144.548,515.946 L169.141,515.946 L196.16,515.946 L229.879,515.946 L263.599,515.946 L275.853,515.946 L295.361,515.946"/>
        </g>
        <g id="0ztdC3L1HAzhbhMHypqcak" title="1DC4">
            <path style="stroke:black; fill:none;" d="M141.4,489.901 L141.4,578.492 L123.391,578.492 L123.391,489.901 L141.4,489.901"/>
        </g>
        <g id="0ztdC3L1HAzhbhMHypqcqu" title="1CC1">
            <path style="stroke:black; fill:none;" d="M327.975,635.645 L274.47,635.645 L274.47,631.997 L269.864,631.997 L235.985,631.997 L234.357,631.997 L218.104,631.997 L216.476,631.997 L198.553,631.997 L151.643,631.997 L147.239,631.997 L141.687,631.997 L140.059,631.997 L123.391,631.997 L123.391,623.881 L123.391,580.119 L123.391,578.492 L140.431,578.492 L141.4,578.492 L141.4,579.46 L141.4,613.807 L178.683,613.807 L209.828,613.807 L223.657,613.807 L302.903,613.807 L327.975,613.807 L327.975,632.103 L327.975,635.645"/>
        </g>
        <g id="0ztdC3L1HAzhbhMHypqcqZ" title="1CC2">
            <path style="stroke:black; fill:none;" d="M217.136,679.083 L217.136,631.997 L235.325,631.997 L235.325,679.083 L217.136,679.083"/>
        </g>
        <g id="0ztdC3L1HAzhbhMHypqcqk" title="1CC3">
            <path style="stroke:black; fill:none;" d="M141.4,689.735 L123.391,689.735 L123.391,667.546 L123.391,637.773 L123.391,631.997 L141.4,631.997 L141.4,636.89 L147.239,636.89 L151.643,636.89 L151.664,636.89 L151.664,652.526 L146.697,652.526 L145.069,652.526 L141.4,652.526 L141.4,660.679 L141.4,679.656 L141.4,689.735"/>
        </g>
        <g id="0ztdC3L1HAzhbhMHypqcqj" title="1C01">
            <path style="stroke:black; fill:none;" d="M141.4,578.492 L178.683,578.492 L178.683,613.807 L141.4,613.807 L141.4,578.492"/>
        </g>
        <g id="0ztdC3L1HAzhbhMHypqcBK" title="1C02">
            <path style="stroke:black; fill:none;" d="M198.84,578.492 L209.169,578.492 L209.169,579.513 L209.169,612.488 L178.683,612.488 L178.683,580.407 L194.234,580.407 L198.84,580.407 L198.84,578.492"/>
        </g>
        <g id="0ztdC3L1HAzhbhMHypqcBJ" title="1C03">
            <path style="stroke:black; fill:none;" d="M222.997,612.488 L210.488,612.488 L210.488,580.407 L222.997,580.407 L222.997,612.488"/>
        </g>
        <g id="0ztdC3L1HAzhbhMHypqcBR" title="1C04">
            <path style="stroke:black; fill:none;" d="M273.226,636.89 L273.226,662.1 L236.644,662.1 L236.644,633.462 L236.644,633.316 L269.577,633.316 L269.577,636.89 L273.226,636.89"/>
        </g>
        <g id="0ztdC3L1HAzhbhMHypqcB6" title="1C05">
            <path style="stroke:black; fill:none;" d="M273.226,663.419 L273.226,696.351 L269.577,696.351 L269.577,700 L245.324,700 L245.324,679.083 L236.644,679.083 L236.644,663.419 L273.226,663.419"/>
        </g>
        <g id="0ztdC3L1HAzhbhMHypqcB5" title="1C06">
            <path style="stroke:black; fill:none;" d="M244.005,700 L217.136,700 L217.136,680.402 L244.005,680.402 L244.005,700"/>
        </g>
        <g id="0ztdC3L1HAzhbhMHypqcB0" title="1C07">
            <path style="stroke:black; fill:none;" d="M341.016,585.449 L341.016,612.488 L328.634,612.488 L303.563,612.488 L303.563,599.075 L263.035,591.629 L263.035,580.754 L269.934,580.545 L277.38,580.318 L325.568,578.853 L337.027,578.505 L337.027,580.119 L337.027,585.449 L341.016,585.449"/>
        </g>
        <g id="0ztdC3L1HAzhbhMHypqcBF" title="1C08">
            <path style="stroke:black; fill:none;" d="M174.417,660.292 L174.417,636.89 L198.84,636.89 L198.84,633.316 L215.817,633.316 L215.817,633.462 L215.817,660.292 L174.417,660.292"/>
        </g>
        <g id="0ztdC3L1HAzhbhMHypqcBA" title="1C09">
            <path style="stroke:black; fill:none;" d="M193.947,700 L178.034,700 L178.034,696.351 L174.417,696.351 L174.417,661.611 L215.817,661.611 L215.817,679.743 L215.817,700 L198.84,700 L198.84,696.351 L193.947,696.351 L193.947,700"/>
        </g>
        <g id="0ztdC3L1HAzhbhMHypqcB9" title="1C10">
            <path style="stroke:black; fill:none;" d="M302.244,612.488 L224.316,612.488 L224.316,579.513 L224.316,578.492 L243.218,578.492 L261.716,578.492 L261.716,580.126 L261.716,592.728 L302.244,600.174 L302.244,612.488"/>
        </g>
        <g id="0ztdC3L1HAzhbhMHypqcBw" title="1D01">
            <path style="stroke:black; fill:none;" d="M264.258,492.927 L264.258,472.903 L269.598,472.903 L269.598,476.482 L274.534,476.482 L274.534,478.375 L274.534,492.927 L274.387,492.927 L264.258,492.927"/>
        </g>
        <g id="0ztdC3L1HAzhbhMHypqcBb" title="1D02">
            <path style="stroke:black; fill:none;" d="M337.442,476.482 L337.442,505.308 L295.361,505.308 L295.361,476.482 L337.442,476.482"/>
        </g>
        <g id="0ztdC3L1HAzhbhMHypqcBW" title="1D03">
            <path style="stroke:black; fill:none;" d="M275.853,514.627 L264.258,514.627 L264.258,494.246 L275.853,494.246 L275.853,514.627"/>
        </g>
        <g id="0ztdC3L1HAzhbhMHypqcBl" title="1D04">
            <path style="stroke:black; fill:none;" d="M316.529,534.135 L316.529,509.351 L337.442,509.351 L337.442,534.135 L316.529,534.135"/>
        </g>
        <g id="0ztdC3L1HAzhbhMHypqcBg" title="1D05">
            <path style="stroke:black; fill:none;" d="M315.87,535.454 L337.442,535.454 L337.442,577.172 L325.527,577.535 L301.276,577.535 L301.276,535.454 L315.87,535.454"/>
        </g>
        <g id="0ztdC3L1HAzhbhMHypqcBf" title="1D06">
            <path style="stroke:black; fill:none;" d="M277.597,535.454 L299.957,535.454 L299.957,577.535 L277.597,577.535 L277.597,535.454"/>
        </g>
        <g id="0ztdC3L1HAzhbhMHypqcAK" title="1D07">
            <path style="stroke:black; fill:none;" d="M243.878,577.173 L243.878,535.454 L271.236,535.454 L271.236,537.847 L276.278,537.847 L276.278,575.514 L269.577,575.514 L269.577,577.173 L262.003,577.173 L243.878,577.173"/>
        </g>
        <g id="0ztdC3L1HAzhbhMHypqcAJ" title="1D08">
            <path style="stroke:black; fill:none;" d="M262.939,514.627 L230.539,514.627 L230.539,472.903 L262.939,472.903 L262.939,514.627"/>
        </g>
        <g id="0ztdC3L1HAzhbhMHypqcAU" title="1D09">
            <path style="stroke:black; fill:none;" d="M210.158,577.173 L210.158,535.454 L242.559,535.454 L242.559,577.173 L210.158,577.173"/>
        </g>
        <g id="0ztdC3L1HAzhbhMHypqcAT" title="1D10">
            <path style="stroke:black; fill:none;" d="M229.22,514.627 L196.819,514.627 L196.819,476.482 L198.84,476.482 L198.84,472.903 L229.22,472.903 L229.22,514.627"/>
        </g>
        <g id="0ztdC3L1HAzhbhMHypqcAO" title="1D11">
            <path style="stroke:black; fill:none;" d="M178.97,577.173 L176.438,577.173 L176.438,535.454 L208.839,535.454 L208.839,577.156 L208.839,577.173 L198.84,577.173 L198.84,575.514 L193.947,575.514 L193.947,577.173 L178.97,577.173"/>
        </g>
        <g id="0ztdC3L1HAzhbhMHypqcA7" title="1D12">
            <path style="stroke:black; fill:none;" d="M195.5,514.627 L169.801,514.627 L169.801,493.416 L169.801,472.903 L193.947,472.903 L193.947,476.482 L195.5,476.482 L195.5,514.627"/>
        </g>
        <g id="0ztdC3L1HAzhbhMHypqcA2" title="1D13">
            <path style="stroke:black; fill:none;" d="M142.719,577.173 L142.719,535.454 L175.119,535.454 L175.119,577.173 L142.719,577.173"/>
        </g>
        <g id="0ztdC3L1HAzhbhMHypqcA1" title="1D14">
            <path style="stroke:black; fill:none;" d="M168.482,514.627 L145.442,514.627 L145.442,494.076 L168.482,494.076 L168.482,514.627"/>
        </g>
        <g id="0ztdC3L1HAzhbhMHypqcAC" title="1D15">
            <path style="stroke:black; fill:none;" d="M142.719,472.903 L168.482,472.903 L168.482,492.757 L144.548,492.757 L142.719,492.757 L142.719,489.241 L142.719,487.518 L142.059,487.518 L142.059,477.785 L142.719,477.785 L142.719,472.903"/>
        </g>
        <g id="0ztdC3L1HAzhbhMHypqcAu" title="1D16">
            <path style="stroke:black; fill:none;" d="M50.8774,577.535 L34.5282,577.535 L3.64854,577.535 L3.64854,575.514 L5.11591e-12,575.514 L5.11591e-12,560.408 L5.34328e-12,517.86 L5.34328e-12,510.414 L57.6639,510.414 L92.575,510.414 L92.575,533.576 L92.575,537.007 L104.831,537.007 L122.072,537.007 L122.072,575.514 L118.317,575.514 L118.317,577.535 L93.2984,577.535 L55.7705,577.535 L55.7705,575.514 L50.8774,575.514 L50.8774,577.535"/>
        </g>
        <g id="0ztdC3L1HAzhbhMHypqcAd" title="1D17">
            <path style="stroke:black; fill:none;" d="M122.072,535.688 L105.118,535.688 L105.118,524.534 L122.072,524.534 L122.072,535.688"/>
        </g>
        <g id="0ztdC3L1HAzhbhMHypqcAY" title="1D18">
            <path style="stroke:black; fill:none;" d="M106.51,495.246 L122.072,495.246 L122.072,522.577 L103.799,522.577 L103.799,532.682 L93.894,532.682 L93.894,509.755 L93.894,497.969 L106.51,497.969 L106.51,495.246"/>
        </g>
        <g id="0ztdC3L1HAzhbhMHypqcAX" title="1D19">
            <path style="stroke:black; fill:none;" d="M93.894,472.908 L118.317,472.908 L118.317,476.482 L122.072,476.482 L122.072,489.241 L122.072,493.927 L106.222,493.927 L93.894,493.927 L93.894,472.908"/>
        </g>
        <g id="0ztdC3L1HAzhbhMHypqcAi" title="1D20">
            <path style="stroke:black; fill:none;" d="M58.3234,472.908 L92.575,472.908 L92.575,509.095 L58.3234,509.095 L58.3234,472.908"/>
        </g>
        <g id="0ztdC3L1HAzhbhMHypqcAh" title="1D21">
            <path style="stroke:black; fill:none;" d="M57.0044,509.095 L5.11591e-12,509.095 L5.11591e-12,476.482 L3.64854,476.482 L3.64854,472.908 L36.6981,472.908 L50.8774,472.908 L50.8774,476.482 L57.0044,476.482 L57.0044,509.095"/>
        </g>
        <g id="0ztdC3L1HAzhbhMHypqc9M" title="1D22">
            <path style="stroke:black; fill:none;" d="M6.36646e-12,412.18 L6.36646e-12,405.958 L3.36134,405.958 L36.0386,405.958 L36.0386,422.551 L41.7827,422.551 L41.7827,454.995 L36.0386,454.995 L36.0386,471.589 L3.36134,471.589 L3.52429e-12,471.589 L4.09273e-12,465.365 L6.25278e-12,412.18"/>
        </g>
        <g id="0ztdC3L1HAzhbhMHypqc9L" title="1D23">
            <path style="stroke:black; fill:none;" d="M4.77485e-12,401.064 L4.77485e-12,368.451 L57.0044,368.451 L57.0044,400.979 L50.8774,400.979 L50.8774,404.639 L36.6981,404.639 L3.64854,404.639 L3.64854,401.064 L4.77485e-12,401.064"/>
        </g>
        <g id="0ztdC3L1HAzhbhMHypqc9G" title="1D24">
            <path style="stroke:black; fill:none;" d="M58.3234,368.451 L92.575,368.451 L92.575,404.639 L58.3234,404.639 L58.3234,368.451"/>
        </g>
        <g id="0ztdC3L1HAzhbhMHypqc9V" title="1D25">
            <path style="stroke:black; fill:none;" d="M4.66116e-12,367.132 L4.66116e-12,302.033 L3.64854,302.033 L3.64854,300.012 L50.8774,300.012 L50.8774,302.033 L55.7705,302.033 L55.7705,300.012 L91.4475,300.012 L118.317,300.012 L118.317,302.033 L121.891,302.033 L121.891,340.539 L92.575,340.539 L92.575,360.665 L92.575,363.281 L92.575,367.132 L57.6639,367.132 L4.66116e-12,367.132"/>
        </g>
        <g id="0ztdC3L1HAzhbhMHypqc9Q" title="1D26">
            <path style="stroke:black; fill:none;" d="M121.891,341.858 L121.891,359.686 L93.894,359.686 L93.894,341.858 L121.891,341.858"/>
        </g>
        <g id="0ztdC3L1HAzhbhMHypqc9P" title="1D27">
            <path style="stroke:black; fill:none;" d="M121.891,367.519 L121.891,401.064 L118.354,401.064 L118.354,404.639 L93.894,404.639 L93.894,367.791 L93.894,363.941 L121.891,363.941 L121.891,367.519"/>
        </g>
        <g id="0ztdC3L1HAzhbhMHypqc94" title="1D28">
            <path style="stroke:black; fill:none;" d="M142.719,342.092 L142.719,300.373 L174.758,300.373 L174.758,342.092 L142.719,342.092"/>
        </g>
        <g id="0ztdC3L1HAzhbhMHypqc93" title="1D30">
            <path style="stroke:black; fill:none;" d="M165.759,404.639 L142.719,404.639 L142.719,362.92 L165.759,362.92 L165.759,404.639"/>
        </g>
        <g id="0ztdC3L1HAzhbhMHypqc9B" title="1D31">
            <path style="stroke:black; fill:none;" d="M188.905,404.639 L167.078,404.639 L167.078,362.92 L195.5,362.92 L195.5,400.16 L194.234,400.16 L188.905,400.16 L188.905,403.224 L188.905,404.639"/>
        </g>
        <g id="0ztdC3L1HAzhbhMHypqc9s" title="1D32">
            <path style="stroke:black; fill:none;" d="M208.477,342.092 L176.077,342.092 L176.077,300.373 L182.969,300.373 L193.947,300.373 L193.947,302.033 L198.84,302.033 L198.84,300.373 L208.477,300.373 L208.477,342.092"/>
        </g>
        <g id="0ztdC3L1HAzhbhMHypqc9r" title="1D33">
            <path style="stroke:black; fill:none;" d="M229.22,362.92 L229.22,404.639 L198.84,404.639 L198.84,401.064 L196.819,401.064 L196.819,400.447 L196.819,362.92 L229.22,362.92"/>
        </g>
        <g id="0ztdC3L1HAzhbhMHypqc9m" title="1D34">
            <path style="stroke:black; fill:none;" d="M242.197,342.092 L209.796,342.092 L209.796,300.373 L242.197,300.373 L242.197,342.092"/>
        </g>
        <g id="0ztdC3L1HAzhbhMHypqc9$" title="1D35">
            <path style="stroke:black; fill:none;" d="M262.939,362.92 L262.939,404.639 L230.539,404.639 L230.539,362.92 L262.939,362.92"/>
        </g>
        <g id="0ztdC3L1HAzhbhMHypqc9w" title="1D36">
            <path style="stroke:black; fill:none;" d="M275.917,342.092 L243.516,342.092 L243.516,300.373 L269.577,300.373 L269.577,302.033 L274.183,302.033 L275.917,302.033 L275.917,342.092"/>
        </g>
        <g id="0ztdC3L1HAzhbhMHypqc9v" title="1D37">
            <path style="stroke:black; fill:none;" d="M275.853,383.3 L264.258,383.3 L264.258,362.92 L275.853,362.92 L275.853,383.3"/>
        </g>
        <g id="0ztdC3L1HAzhbhMHypqc8a" title="1D38">
            <path style="stroke:black; fill:none;" d="M337.442,342.092 L277.236,342.092 L277.236,300.373 L337.442,300.373 L337.442,342.092"/>
        </g>
        <g id="0ztdC3L1HAzhbhMHypqc8Z" title="1D39">
            <path style="stroke:black; fill:none;" d="M274.534,399.171 L274.534,401.064 L269.577,401.064 L269.577,404.639 L264.258,404.639 L264.258,384.619 L274.387,384.619 L274.534,384.619 L274.534,399.171"/>
        </g>
        <g id="0ztdC3L1HAzhbhMHypqc8k" title="1D40">
            <path style="stroke:black; fill:none;" d="M316.529,343.411 L337.442,343.411 L337.442,378.397 L337.442,389.279 L337.442,401.064 L295.361,401.064 L295.361,399.171 L295.361,375.706 L316.529,375.706 L316.529,372.312 L316.529,343.411"/>
        </g>
        <g id="0ztdC3L1HAzhbhMHypqc8e" title="1DC5">
            <path style="stroke:black; fill:none;" d="M123.21,405.958 L123.21,368.179 L141.4,368.179 L141.4,405.958 L123.21,405.958"/>
        </g>
        <g id="0ztdC3L1HAzhbhMHypqc1c" title="1DC6">
            <path style="stroke:black; fill:none;" d="M123.21,366.86 L123.21,280.482 L141.4,280.482 L141.4,366.86 L123.21,366.86"/>
        </g>
        <g id="0ztdC3L1HAzhbhMHypqc1b" title="1DC7">
            <path style="stroke:black; fill:none;" d="M141.4,343.411 L175.417,343.411 L209.137,343.411 L242.857,343.411 L276.576,343.411 L315.21,343.411 L315.21,372.025 L295.361,372.025 L295.361,361.578 L275.853,362.26 L275.853,361.601 L263.599,361.601 L229.879,361.601 L196.16,361.601 L166.418,361.601 L141.4,361.601 L141.4,343.411"/>
        </g>
        <g id="0ztdC3L1HAzhbhMHypqc1W" title="1DC8">
            <path style="stroke:black; fill:none;" d="M275.853,398.512 L275.853,383.96 L275.853,382.332 L275.853,362.26 L294.042,361.624 L294.042,372.312 L294.042,374.812 L294.042,398.512 L275.853,398.512"/>
        </g>
        <g id="0ztdC3L1HAzhbhMHypqc1g" title="1C12">
            <path style="stroke:black; fill:none;" d="M122.072,668.206 L122.072,696.351 L100.127,696.351 L100.127,668.206 L122.072,668.206"/>
        </g>
        <g id="0ztdC3L1HAzhbhMHypqc0L" title="1C13">
            <path style="stroke:black; fill:none;" d="M118.604,623.593 L93.9579,623.593 L93.9579,578.854 L118.317,578.854 L118.317,580.407 L122.072,580.407 L122.072,623.593 L118.604,623.593"/>
        </g>
        <g id="0ztdC3L1HAzhbhMHypqc0G" title="1C14">
            <path style="stroke:black; fill:none;" d="M98.8084,700 L72.7899,700 L72.7899,668.206 L98.8084,668.206 L98.8084,700"/>
        </g>
        <g id="0ztdC3L1HAzhbhMHypqc0V" title="1C15">
            <path style="stroke:black; fill:none;" d="M92.6389,623.593 L55.7705,623.593 L55.7705,578.854 L92.6389,578.854 L92.6389,623.593"/>
        </g>
        <g id="0ztdC3L1HAzhbhMHypqc0Q" title="1C16">
            <path style="stroke:black; fill:none;" d="M50.8774,700 L38.7511,700 L38.7511,668.206 L71.4709,668.206 L71.4709,700 L55.7705,700 L55.7705,696.351 L50.8774,696.351 L50.8774,700"/>
        </g>
        <g id="0ztdC3L1HAzhbhMHypqc0P" title="1C17">
            <path style="stroke:black; fill:none;" d="M33.8687,609.084 L5.11591e-12,609.084 L5.11591e-12,580.407 L3.64854,580.407 L3.64854,578.854 L33.8687,578.854 L33.8687,609.084"/>
        </g>
        <g id="0ztdC3L1HAzhbhMHypqc04" title="1C18">
            <path style="stroke:black; fill:none;" d="M38.0916,666.887 L5.11591e-12,666.887 L5.11591e-12,636.89 L3.64854,636.89 L3.64854,631.997 L5.11591e-12,631.997 L5.11591e-12,610.403 L35.1877,610.403 L35.1877,578.854 L50.8774,578.854 L50.8774,624.912 L55.4833,624.912 L93.2984,624.912 L118.317,624.912 L118.317,638.06 L122.072,638.06 L122.072,666.887 L99.4679,666.887 L72.1304,666.887 L38.0916,666.887"/>
            <path style="stroke:black; fill:none;" d="M50.8774,636.89 L55.7705,636.89 L55.7705,631.997 L50.8774,631.997 L50.8774,636.89"/>
        </g>
        <g id="0ztdC3L1HAzhbhMHypqc03" title="1C19">
            <path style="stroke:black; fill:none;" d="M37.4321,700 L3.64854,700 L3.64854,696.351 L5.22959e-12,696.351 L5.22959e-12,668.206 L37.4321,668.206 L37.4321,700"/>
        </g>
        <g id="0ztdC3L1HAzhbhMHypqc0D" title="1C11">
            <path style="stroke:black; fill:none;" d="M142.719,679.368 L142.719,660.966 L146.037,660.966 L146.037,679.368 L142.719,679.368"/>
        </g>
        <g id="0ztdC3L1HAzhbhMHypqc0q" title="1CS3">
            <path style="stroke:black; fill:none;" d="M173.098,697.256 L147.356,697.256 L147.356,679.656 L147.356,660.679 L147.356,654.441 L147.356,653.845 L152.324,653.845 L160.11,653.845 L160.11,648.027 L158.791,648.027 L158.791,652.526 L152.983,652.526 L152.983,636.89 L173.098,636.89 L173.098,660.951 L173.098,696.639 L173.098,697.256"/>
        </g>
        <g id="0ztdC3L1HAzhbhMHypqc0$" title="1E01">
            <path style="stroke:black; fill:none;" d="M310.892,230.381 L341.016,230.381 L341.016,264.058 L310.892,264.058 L310.892,230.381"/>
        </g>
        <g id="0ztdC3L1HAzhbhMHypqc0d" title="1E02">
            <path style="stroke:black; fill:none;" d="M341.016,265.377 L341.016,284.481 L310.892,284.481 L310.892,265.377 L341.016,265.377"/>
        </g>
        <g id="0ztdC3L1HAzhbhMHypqc0Y" title="1E03">
            <path style="stroke:black; fill:none;" d="M341.016,285.8 L341.016,297.14 L337.442,297.14 L337.442,299.054 L310.892,299.054 L310.892,285.8 L341.016,285.8"/>
        </g>
        <g id="0ztdC3L1HAzhbhMHypqc0X" title="1E04">
            <path style="stroke:black; fill:none;" d="M279.087,230.381 L309.573,230.381 L309.573,263.696 L279.087,263.696 L279.087,230.381"/>
        </g>
        <g id="0ztdC3L1HAzhbhMHypqc0i" title="1E05">
            <path style="stroke:black; fill:none;" d="M309.573,299.054 L279.087,299.054 L279.087,265.015 L309.573,265.015 L309.573,299.054"/>
        </g>
        <g id="0ztdC3L1HAzhbhMHypqc0h" title="1E06">
            <path style="stroke:black; fill:none;" d="M218.519,230.381 L277.768,230.381 L277.768,264.356 L277.768,299.054 L276.576,299.054 L274.47,299.054 L274.47,297.14 L269.577,297.14 L269.577,299.054 L242.857,299.054 L218.519,299.054 L218.519,267.441 L218.519,230.381"/>
        </g>
        <g id="0ztdC3L1HAzhbhMHypqc7M" title="1E07">
            <path style="stroke:black; fill:none;" d="M183.629,230.381 L217.2,230.381 L217.2,266.781 L183.629,266.781 L183.629,230.381"/>
        </g>
        <g id="0ztdC3L1HAzhbhMHypqc7L" title="1E08">
            <path style="stroke:black; fill:none;" d="M217.2,299.054 L209.137,299.054 L198.84,299.054 L198.84,297.14 L193.947,297.14 L193.947,299.054 L183.629,299.054 L183.629,268.1 L217.2,268.1 L217.2,299.054"/>
        </g>
        <g id="0ztdC3L1HAzhbhMHypqc7G" title="1E09">
            <path style="stroke:black; fill:none;" d="M164.535,230.381 L182.31,230.381 L182.31,258.697 L164.535,258.697 L164.535,230.381"/>
        </g>
        <g id="0ztdC3L1HAzhbhMHypqc7V" title="1E10">
            <path style="stroke:black; fill:none;" d="M142.719,230.381 L160.493,230.381 L160.493,258.697 L142.719,258.697 L142.719,230.381"/>
        </g>
        <g id="0ztdC3L1HAzhbhMHypqc7Q" title="1E11">
            <path style="stroke:black; fill:none;" d="M142.719,299.054 L142.719,260.016 L182.31,260.016 L182.31,299.054 L142.719,299.054"/>
        </g>
        <g id="0ztdC3L1HAzhbhMHypqc7P" title="1E12">
            <path style="stroke:black; fill:none;" d="M121.891,230.381 L121.891,249.868 L94.8833,249.868 L94.8833,230.381 L121.891,230.381"/>
        </g>
        <g id="0ztdC3L1HAzhbhMHypqc74" title="1E14">
            <path style="stroke:black; fill:none;" d="M55.7705,298.693 L55.7705,230.381 L90.788,230.381 L90.788,298.693 L55.7705,298.693"/>
        </g>
        <g id="0ztdC3L1HAzhbhMHypqc7F" title="1E15">
            <path style="stroke:black; fill:none;" d="M4.66116e-12,231.902 L8.83414,231.902 L50.8774,231.902 L50.8774,297.14 L3.36134,297.14 L4.66116e-12,297.14 L4.66116e-12,270.013 L7.79702,270.013 L7.79702,238.423 L4.66116e-12,238.423 L4.66116e-12,231.902"/>
        </g>
        <g id="0ztdC3L1HAzhbhMHypqc7A" title="1E16">
            <path style="stroke:black; fill:none;" d="M3.65279,100.427 L48.5373,100.427 L48.5373,103.788 L48.5373,130.115 L48.5373,177.046 L50.9838,177.046 L50.9838,178.727 L50.9838,180.769 L48.5373,180.769 L48.5373,206.267 L48.5373,209.734 L10.4617,209.734 L8.83414,209.734 L3.64854,209.734 L3.64854,205.979 L4.43379e-12,205.979 L4.54747e-12,184.173 L4.66116e-12,130.982 L4.66116e-12,104.075 L3.65279,104.075 L3.65279,100.427"/>
        </g>
        <g id="0ztdC3L1HAzhbhMHypqc79" title="1E17">
            <path style="stroke:black; fill:none;" d="M55.7748,100.427 L84.3419,100.427 L84.3419,129.456 L49.8563,129.456 L49.8563,104.075 L55.7748,104.075 L55.7748,100.427"/>
        </g>
        <g id="0ztdC3L1HAzhbhMHypqc7q" title="1E18">
            <path style="stroke:black; fill:none;" d="M49.8563,175.727 L49.8563,130.775 L84.3419,130.775 L84.3419,163.181 L84.3419,164.808 L84.3419,178.067 L82.608,178.067 L52.3028,178.067 L52.3028,175.727 L49.8563,175.727"/>
        </g>
        <g id="0ztdC3L1HAzhbhMHypqc7p" title="1E19">
            <path style="stroke:black; fill:none;" d="M84.3419,209.734 L55.7705,209.734 L55.7705,205.979 L49.8563,205.979 L49.8563,182.088 L52.3028,182.088 L52.3028,179.386 L81.9485,179.386 L81.9485,184.428 L84.3419,184.428 L84.3419,209.588 L84.3419,209.734"/>
        </g>
        <g id="0ztdC3L1HAzhbhMHypqc7_" title="1E20">
            <path style="stroke:black; fill:none;" d="M108.924,100.427 L118.317,100.427 L118.317,104.075 L142.331,104.075 L142.331,105.232 L145.023,105.232 L145.023,127.903 L125.62,127.903 L108.924,127.903 L108.924,100.427"/>
        </g>
        <g id="0ztdC3L1HAzhbhMHypqc7z" title="1E21">
            <path style="stroke:black; fill:none;" d="M108.924,163.282 L108.924,129.222 L124.961,129.222 L124.961,163.282 L108.924,163.282"/>
        </g>
        <g id="0ztdC3L1HAzhbhMHypqc7u" title="1E22">
            <path style="stroke:black; fill:none;" d="M126.28,129.222 L145.023,129.222 L145.023,163.282 L126.28,163.282 L126.28,129.222"/>
        </g>
        <g id="0ztdC3L1HAzhbhMHypqc7d" title="1E23">
            <path style="stroke:black; fill:none;" d="M118.317,209.734 L107.403,209.734 L107.403,209.588 L107.403,184.588 L145.023,184.588 L145.023,205.979 L140.704,205.979 L140.704,209.734 L123.21,209.734 L123.21,205.979 L118.317,205.979 L118.317,209.734"/>
        </g>
        <g id="0ztdC3L1HAzhbhMHypqc7Y" title="1E24">
            <path style="stroke:black; fill:none;" d="M144.147,100.427 L170.222,100.427 L170.222,104.075 L274.853,104.075 L274.853,131.86 L274.853,164.494 L265.105,164.494 L265.105,206.267 L265.105,209.734 L243.831,209.734 L243.831,199.597 L242.512,199.597 L242.512,209.734 L198.84,209.734 L198.84,205.979 L146.342,205.979 L146.342,205.962 L146.342,183.929 L146.342,163.941 L146.342,128.562 L146.342,103.913 L142.991,103.913 L142.991,103.182 L142.991,100.427 L144.147,100.427"/>
        </g>
        <g id="0ztdC3L1HAzhbhMHypqc7X" title="1E25">
            <path style="stroke:black; fill:none;" d="M275.513,165.813 L294.319,165.813 L294.319,209.588 L294.319,209.734 L274.47,209.734 L274.47,205.979 L266.424,205.979 L266.424,165.813 L275.513,165.813"/>
        </g>
        <g id="0ztdC3L1HAzhbhMHypqc7i" title="1E26">
            <path style="stroke:black; fill:none;" d="M341.091,132.519 L341.091,164.494 L276.172,164.494 L276.172,132.519 L341.091,132.519"/>
        </g>
        <g id="0ztdC3L1HAzhbhMHypqc7h" title="1E27">
            <path style="stroke:black; fill:none;" d="M276.172,100.427 L307.615,100.427 L307.615,131.2 L276.172,131.2 L276.172,100.427"/>
        </g>
        <g id="0ztdC3L1HAzhbhMHypqc6M" title="1E28">
            <path style="stroke:black; fill:none;" d="M341.091,104.075 L341.091,131.2 L308.934,131.2 L308.934,100.427 L337.442,100.427 L337.442,104.075 L341.091,104.075"/>
        </g>
        <g id="0ztdC3L1HAzhbhMHypqc6L" title="1E29">
            <path style="stroke:black; fill:none;" d="M341.091,165.813 L341.091,205.979 L337.442,205.979 L337.442,209.734 L331.038,209.734 L315.147,209.734 L315.147,209.588 L315.147,165.813 L341.091,165.813"/>
        </g>
        <g id="0ztdC3L1HAzhbhMHypqc6G" title="1E30">
            <path style="stroke:black; fill:none;" d="M107.403,164.601 L145.023,164.601 L145.023,183.269 L107.403,183.269 L107.403,164.601"/>
        </g>
        <g id="0ztdC3L1HAzhbhMHypqc6V" title="1E33">
            <path style="stroke:black; fill:none;" d="M121.891,279.822 L121.891,297.14 L118.317,297.14 L118.317,298.693 L92.107,298.693 L92.107,251.187 L93.9898,251.187 L121.891,251.187 L121.891,279.822"/>
        </g>
        <g id="0ztdC3L1HAzhbhMHypqcQh" title="1EC1">
            <path style="stroke:black; fill:none;" d="M10.2542,229.062 L10.2542,211.053 L330.379,211.053 L330.379,229.062 L10.2542,229.062"/>
        </g>
        <g id="0ztdC3L1HAzhbhMHypqcPI" title="1EC2">
            <path style="stroke:black; fill:none;" d="M295.638,165.813 L313.828,165.813 L313.828,211.053 L295.638,211.053 L295.638,165.813"/>
        </g>
        <g id="0ztdC3L1HAzhbhMHypqcPH" title="1EC3">
            <path style="stroke:black; fill:none;" d="M123.21,279.163 L123.21,229.062 L141.4,229.062 L141.4,279.163 L123.21,279.163"/>
        </g>
        <g id="0ztdC3L1HAzhbhMHypqcPS" title="1EC4">
            <path style="stroke:black; fill:none;" d="M85.6609,211.053 L106.084,211.053 L106.084,183.929 L106.084,165.569 L106.084,164.601 L85.6609,164.601 L85.6609,179.386 L83.2675,179.386 L83.2675,183.109 L85.6609,183.109 L85.6609,211.053"/>
        </g>
        <g id="0ztdC3L1HAzhbhMHypqcOd" title="1BC1">
            <path style="stroke:black; fill:none;" d="M514.232,362.664 L532.421,362.664 L532.421,394.363 L514.232,394.363 L514.232,362.664"/>
        </g>
        <g id="0ztdC3L1HAzhbhMHypqcOk" title="1BC2">
            <path style="stroke:black; fill:none;" d="M472.64,312.563 L472.64,330.413 L472.64,350.772 L472.64,378.216 L472.64,394.363 L454.451,394.363 L454.451,377.961 L454.451,352.261 L454.451,309.564 L454.451,256.421 L454.451,254.793 L454.451,237.572 L459.11,237.572 L472.64,237.572 L472.64,251.932 L483.277,251.932 L483.277,270.121 L475.789,270.121 L472.64,270.121 L472.64,293.129 L472.64,297.427 L472.64,302.033 L476.959,302.033 L476.959,312.563 L472.64,312.563"/>
        </g>
        <g id="0ztdC3L1HAzhbhMHypqcOj" title="1BC3">
            <path style="stroke:black; fill:none;" d="M377.161,237.572 L454.451,237.572 L454.451,255.761 L377.161,255.761 L377.161,237.572"/>
        </g>
        <g id="0ztdC3L1HAzhbhMHypqcOe" title="1BC4">
            <path style="stroke:black; fill:none;" d="M342.335,207.224 L363.609,207.224 L363.609,237.572 L375.842,237.572 L375.842,255.761 L363.609,255.761 L363.609,300.778 L363.609,345.433 L388.819,345.433 L388.819,351.602 L388.819,374.827 L364.277,374.827 L342.335,374.827 L342.335,297.427 L342.335,285.141 L342.335,264.718 L342.335,229.062 L331.698,229.062 L331.698,211.053 L337.729,211.053 L342.335,211.053 L342.335,207.224"/>
        </g>
        <g id="0ztdC3L1HAzhbhMHypqcVI" title="1B01">
            <path style="stroke:black; fill:none;" d="M512.913,395.023 L512.913,404.639 L511.18,404.639 L511.18,405.298 L510.604,405.298 L498.832,405.298 L498.256,405.298 L498.256,404.639 L497.204,404.639 L495.492,404.639 L478.278,404.639 L478.278,401.064 L473.959,401.064 L473.959,395.023 L473.959,378.875 L512.913,378.875 L512.913,395.023"/>
        </g>
        <g id="0ztdC3L1HAzhbhMHypqcVT" title="1B02">
            <path style="stroke:black; fill:none;" d="M554.472,396.916 L554.472,386.279 L550.823,386.279 L550.823,371.706 L533.74,371.706 L533.74,395.023 L533.74,401.915 L550.823,401.915 L550.823,396.916 L554.472,396.916"/>
        </g>
        <g id="0ztdC3L1HAzhbhMHypqcVO" title="1B03">
            <path style="stroke:black; fill:none;" d="M512.913,362.005 L512.913,377.556 L473.959,377.556 L473.959,351.432 L499.914,351.432 L502.403,351.432 L508.232,351.432 L508.232,353.532 L512.913,353.532 L512.913,362.005"/>
        </g>
        <g id="0ztdC3L1HAzhbhMHypqcV7" title="1B04">
            <path style="stroke:black; fill:none;" d="M554.472,338.412 L554.472,327.775 L550.823,327.775 L550.823,296.693 L554.472,296.693 L554.472,251.932 L527.188,251.932 L500.425,251.932 L484.596,251.932 L484.596,270.121 L503.063,270.121 L503.063,292.012 L503.063,313.223 L503.063,330.413 L503.063,350.113 L508.892,350.113 L514.232,350.113 L514.232,352.873 L514.232,361.345 L533.74,361.345 L533.74,370.387 L550.823,370.387 L550.823,338.412 L554.472,338.412"/>
        </g>
        <g id="0ztdC3L1HAzhbhMHypqcV2" title="1B05">
            <path style="stroke:black; fill:none;" d="M499.02,350.113 L473.959,350.113 L473.959,331.072 L499.02,331.072 L499.02,350.113"/>
        </g>
        <g id="0ztdC3L1HAzhbhMHypqcV1" title="1B06">
            <path style="stroke:black; fill:none;" d="M554.472,250.613 L527.847,250.613 L527.847,210.872 L554.472,210.872 L554.472,250.613"/>
        </g>
        <g id="0ztdC3L1HAzhbhMHypqcVC" title="1B07">
            <path style="stroke:black; fill:none;" d="M473.959,329.753 L473.959,313.882 L501.744,313.882 L501.744,329.753 L473.959,329.753"/>
        </g>
        <g id="0ztdC3L1HAzhbhMHypqcVB" title="1B08">
            <path style="stroke:black; fill:none;" d="M526.528,250.613 L501.084,250.613 L501.084,210.872 L526.528,210.872 L526.528,250.613"/>
        </g>
        <g id="0ztdC3L1HAzhbhMHypqcVs" title="1B09">
            <path style="stroke:black; fill:none;" d="M501.744,292.672 L501.744,312.563 L478.278,312.563 L478.278,292.672 L501.744,292.672"/>
        </g>
        <g id="0ztdC3L1HAzhbhMHypqcVr" title="1B10">
            <path style="stroke:black; fill:none;" d="M483.242,207.224 L493.879,207.224 L493.879,210.872 L499.765,210.872 L499.765,250.613 L483.937,250.613 L473.959,250.613 L473.959,236.912 L473.959,210.872 L483.242,210.872 L483.242,207.224"/>
        </g>
        <g id="0ztdC3L1HAzhbhMHypqcVm" title="1B11">
            <path style="stroke:black; fill:none;" d="M501.744,271.44 L501.744,291.353 L476.682,291.353 L476.682,271.44 L501.744,271.44"/>
        </g>
        <g id="0ztdC3L1HAzhbhMHypqcV$" title="1B12">
            <path style="stroke:black; fill:none;" d="M459.769,207.224 L472.64,207.224 L472.64,236.253 L459.769,236.253 L459.769,207.224"/>
        </g>
        <g id="0ztdC3L1HAzhbhMHypqcVw" title="1B13">
            <path style="stroke:black; fill:none;" d="M390.138,375.486 L390.138,351.602 L427.432,351.602 L427.432,378.62 L453.132,378.62 L453.132,395.023 L453.132,401.064 L451.399,401.064 L451.399,403.511 L438.475,403.511 L438.475,401.064 L393.862,401.064 L393.862,394.383 L390.138,394.383 L390.138,375.486"/>
        </g>
        <g id="0ztdC3L1HAzhbhMHypqcT2" title="1B14">
            <path style="stroke:black; fill:none;" d="M445.09,207.224 L458.45,207.224 L458.45,236.253 L445.09,236.253 L445.09,207.224"/>
        </g>
        <g id="0ztdC3L1HAzhbhMHypqcT1" title="1B15">
            <path style="stroke:black; fill:none;" d="M453.132,352.921 L453.132,377.301 L428.751,377.301 L428.751,352.921 L453.132,352.921"/>
        </g>
        <g id="0ztdC3L1HAzhbhMHypqcTC" title="1B16">
            <path style="stroke:black; fill:none;" d="M430.411,207.224 L443.771,207.224 L443.771,236.253 L430.411,236.253 L430.411,207.224"/>
        </g>
        <g id="0ztdC3L1HAzhbhMHypqcTB" title="1B17">
            <path style="stroke:black; fill:none;" d="M390.138,351.602 L390.138,310.223 L453.132,310.223 L453.132,351.602 L390.138,351.602"/>
        </g>
        <g id="0ztdC3L1HAzhbhMHypqcTs" title="1B19">
            <path style="stroke:black; fill:none;" d="M452.985,257.08 L453.132,257.08 L453.132,308.904 L415.359,308.904 L415.359,295.892 L407.916,288.449 L404.297,288.449 L404.297,289.768 L407.37,289.768 L414.04,296.438 L414.04,308.904 L390.138,308.904 L390.138,302.033 L397.436,302.033 L397.436,297.14 L390.138,297.14 L390.138,257.08 L452.985,257.08"/>
        </g>
        <g id="0ztdC3L1HAzhbhMHypqcT_" title="1B21">
            <path style="stroke:black; fill:none;" d="M364.928,344.114 L364.928,301.437 L388.819,301.437 L388.819,344.114 L364.928,344.114"/>
        </g>
        <g id="0ztdC3L1HAzhbhMHypqcTv" title="1B23">
            <path style="stroke:black; fill:none;" d="M364.928,257.08 L388.819,257.08 L388.819,300.118 L364.928,300.118 L364.928,257.08"/>
        </g>
        <g id="0ztdC3L1HAzhbhMHypqcTW" title="1BS2">
            <path style="stroke:black; fill:none;" d="M364.928,207.224 L378.501,207.224 L378.501,210.872 L429.092,210.872 L429.092,236.253 L376.502,236.253 L364.928,236.253 L364.928,207.224"/>
        </g>
        <g id="0ztdC3L1HAzhbhMHypqdhw" title="1A16">
            <path style="stroke:black; fill:none;" d="M473.385,635.645 L439.771,635.645 L439.771,605.797 L439.771,584.683 L439.771,569.557 L416.582,569.557 L416.582,552.335 L416.582,550.708 L416.582,540.73 L419.667,540.73 L419.667,530.167 L419.667,528.54 L419.667,503.617 L419.667,501.99 L419.667,476.482 L429.347,476.482 L429.347,472.908 L439.133,472.908 L439.133,476.482 L453.919,476.482 L453.919,472.908 L463.705,472.908 L463.705,476.482 L473.385,476.482 L473.385,540.858 L473.385,571.44 L473.385,580.119 L473.385,603.83 L473.385,632.103 L473.385,635.645"/>
        </g>
        <g id="0ztdC3L1HAzhbhMHypqdeT" title="1AS1">
            <path style="stroke:black; fill:none;" d="M390.309,497.245 L390.309,550.048 L361.216,550.048 L361.216,497.245 L390.309,497.245"/>
        </g>
        <g id="0ztdC3L1HAzhbhMHypqdl$" title="1E15-A">
            <path style="stroke:black; fill:none;" d="M4.66116e-12,268.694 L4.66116e-12,239.742 L6.47802,239.742 L6.47802,268.694 L4.66116e-12,268.694"/>
        </g>
        <g id="0ztdC3L1HAzhbhMHypqdiM" title="E1">
            <path style="stroke:black; fill:none;" d="M364.937,376.146 L388.819,376.146 L388.819,394.383 L381.688,394.383 L381.688,395.043 L371.962,395.043 L371.962,394.383 L364.937,394.383 L364.937,376.146"/>
        </g>
        <g id="1NvbzFDrT8ePCfWUZHOCVS" title="1F01">
            <path style="stroke:black; fill:none;" d="M235.648,97.5868 L144.147,97.5868 L144.147,0 L235.648,0 L235.648,97.5868"/>
        </g>
    </g>
</svg>
