<svg xmlns="http://www.w3.org/2000/svg" xmlns:xlink="http://www.w3.org/1999/xlink">
    <g id="product-e8588825-8be1-496d-b15d-360d83eba4d5">
        <g id="0ClPCUC7jCQRnj1dhupMDV" title="3D01">
            <path style="stroke:black; fill:none;" d="M119.561,396.669 L136.284,385.348 L136.284,395.985 L140.272,395.985 L140.272,395.991 L195.372,395.991 L195.734,395.991 L195.734,481.561 L195.372,481.561 L140.272,481.561 L136.284,481.561 L136.284,492.198 L119.561,492.198 L119.561,480.877 L119.561,396.669"/>
        </g>
        <g id="0ClPCUC7jCQRnj1dhupMDM" title="3AC1">
            <path style="stroke:black; fill:none;" d="M323.299,395.991 L323.299,481.561 L197.053,481.561 L197.053,395.991 L323.299,395.991"/>
        </g>
        <g id="0_IXpwL5b29BZ7C0XgKBd3" title="3R01">
            <path style="stroke:black; fill:none;" d="M337.442,484.401 L337.442,495.038 L315.04,495.038 L315.04,484.401 L314.359,484.401 L314.359,483.874 L272.981,483.874 L272.981,484.401 L270.971,484.401 L270.971,483.874 L197.521,483.874 L197.521,484.401 L196.394,484.401 L195.372,484.401 L195.372,483.874 L140.272,483.874 L140.272,484.401 L139.124,484.401 L139.124,495.038 L116.721,495.038 L116.721,480.877 L117.253,480.877 L117.253,396.669 L116.721,396.669 L116.721,382.508 L139.124,382.508 L139.124,393.145 L140.272,393.145 L140.272,393.678 L195.372,393.678 L195.372,393.151 L196.394,393.151 L197.521,393.151 L197.521,393.678 L270.971,393.678 L270.971,393.151 L272.981,393.151 L272.981,393.678 L314.359,393.678 L314.359,393.151 L315.04,393.151 L315.04,382.513 L337.442,382.513 L337.442,393.151 L391.266,393.151 L392.686,393.151 L392.686,394.077 L408.392,394.077 L554.455,394.077 L554.472,394.077 L554.472,207.224 L52.122,207.224 L52.122,636.012 L143.708,636.012 L143.708,700 L176.747,700 L176.747,635.645 L554.472,635.645 L554.472,483.475 L554.455,483.475 L408.392,483.475 L392.686,483.475 L392.686,484.401 L391.266,484.401 L337.442,484.401"/>
        </g>
        <g id="0_IXpwL5b29BZ7C0XgKBd4" title="3R02">
            <path style="stroke:black; fill:none;" d="M554.472,480.635 L554.472,483.475 L408.392,483.475 L408.392,480.635 L392.686,480.635 L392.686,472.833 L392.731,472.833 L458.11,472.833 L554.455,472.833 L554.472,472.833 L554.472,480.635"/>
        </g>
        <g id="0_IXpwL5b29BZ7C0XgKBdO" title="3R04">
            <path style="stroke:black; fill:none;" d="M554.472,394.077 L554.472,396.917 L554.472,404.713 L554.455,404.713 L458.11,404.713 L392.731,404.713 L392.686,404.713 L392.686,396.917 L408.392,396.917 L408.392,394.077 L554.472,394.077"/>
        </g>
        <g id="0_IXpwL5b29BZ7C0XgKBf4" title="3R03">
            <path style="stroke:black; fill:none;" d="M554.472,404.713 L554.472,472.833 L458.11,472.833 L458.11,404.713 L554.472,404.713"/>
        </g>
    </g>
</svg>
