<svg xmlns="http://www.w3.org/2000/svg" xmlns:xlink="http://www.w3.org/1999/xlink">
    <g id="product-7b7032cc-b822-417b-9aea-6429f95d6512">
        <g id="0BTBFw6f90Nfh9rP1dlXr2" title="A102">
            <path style="stroke:black; fill:none;" d="M163.999,1.7053e-13 L163.999,126.518 L11.0303,126.518 L11.0303,1.7053e-13 L163.999,1.7053e-13"/>
        </g>
        <g id="0BTBFw6f90Nfh9rP1dlXr$" title="A103">
            <path style="stroke:black; fill:none;" d="M11.0303,126.518 L164.687,126.518 L164.687,185.505 L11.0303,185.505 L11.0303,126.518"/>
        </g>
        <g id="0BTBFw6f90Nfh9rP1dlXru" title="A104">
            <path style="stroke:black; fill:none;" d="M126.174,246.211 L126.174,188.785 L164.687,188.785 L164.687,246.211 L126.174,246.211"/>
        </g>
        <g id="0BTBFw6f90Nfh9rP1dlXrr" title="A101">
            <path style="stroke:black; fill:none;" d="M221.743,147.018 L221.743,0 L167.279,0 L167.279,94.7758 L163.999,94.7758 L163.999,126.518 L164.687,126.518 L164.687,130.162 L164.687,168.972 L167.967,168.972 L167.967,187.145 L167.967,193.89 L167.967,214.046 L167.967,246.211 L194.911,246.211 L194.911,147.018 L221.743,147.018"/>
        </g>
        <g id="0BTBFw6f90Nfh9rP1dl_CZ" title="B102">
            <path style="stroke:black; fill:none;" d="M68.774,448.777 L68.774,322.259 L221.743,322.259 L221.743,448.777 L68.774,448.777"/>
        </g>
        <g id="0BTBFw6f90Nfh9rP1dl_3S" title="B103">
            <path style="stroke:black; fill:none;" d="M221.743,322.259 L68.0862,322.259 L68.0862,263.272 L221.743,263.272 L221.743,322.259"/>
        </g>
        <g id="0BTBFw6f90Nfh9rP1dl_3P" title="B104">
            <path style="stroke:black; fill:none;" d="M106.6,202.566 L106.6,259.992 L68.0862,259.992 L68.0862,202.566 L106.6,202.566"/>
        </g>
        <g id="0BTBFw6f90Nfh9rP1dl_3Q" title="B101">
            <path style="stroke:black; fill:none;" d="M11.0303,448.777 L11.0303,301.759 L37.8627,301.759 L37.8627,202.566 L64.8062,202.566 L64.8062,234.633 L64.8062,254.834 L64.8062,261.632 L64.8062,279.804 L68.0862,279.804 L68.0862,318.615 L68.0862,322.259 L68.774,322.259 L68.774,354.001 L65.494,354.001 L65.494,448.777 L11.0303,448.777"/>
        </g>
        <g id="10mjSDZJj9gPS2PrQaxa3z" title="A105">
            <path style="stroke:black; fill:none;" d="M194.911,147.018 L221.743,147.018 L221.743,246.211 L194.911,246.211 L194.911,147.018"/>
        </g>
        <g id="10mjSDZJj9gPS2PrQaxa4o" title="B105">
            <path style="stroke:black; fill:none;" d="M11.0303,202.566 L37.8627,202.566 L37.8627,301.759 L11.0303,301.759 L11.0303,202.566"/>
        </g>
    </g>
</svg>
