<svg xmlns="http://www.w3.org/2000/svg" xmlns:xlink="http://www.w3.org/1999/xlink">
    <g id="product-7b7032cc-b822-417b-9aea-6429f95d6693">
        <g id="0BTBFw6f90Nfh9rP1dlXri" title="A201">
            <path style="stroke:black; fill:none;" d="M51.9773,600 L51.9773,551.726 L25.1448,551.726 L25.1448,459.807 L0,459.807 L0,473.244 L0,559.44 L0,587.356 L0,600 L51.9773,600"/>
        </g>
        <g id="0BTBFw6f90Nfh9rP1dlXre" title="A204">
            <path style="stroke:black; fill:none;" d="M166.486,252.285 L126.174,252.285 L126.174,170.163 L166.486,170.163 L166.486,252.285"/>
        </g>
        <g id="0BTBFw6f90Nfh9rP1dlXrb" title="A203">
            <path style="stroke:black; fill:none;" d="M123.661,0 L221.743,0 L221.743,151.012 L194.911,151.012 L193.66,151.012 L170.805,151.012 L166.486,151.012 L166.486,165.296 L124.163,165.296 L123.661,165.296 L123.661,0"/>
        </g>
        <g id="0BTBFw6f90Nfh9rP1dlXrc" title="A202">
            <path style="stroke:black; fill:none;" d="M123.661,283.481 L124.163,283.481 L166.486,283.481 L166.486,297.765 L171.353,297.765 L194.207,297.765 L221.743,297.765 L221.743,448.777 L123.661,448.777 L123.661,283.481"/>
        </g>
        <g id="0BTBFw6f90Nfh9rP1dl_3G" title="B201">
            <path style="stroke:black; fill:none;" d="M0,508.081 L0,459.807 L51.9773,459.807 L51.9773,472.451 L51.9773,499.959 L51.9773,586.563 L51.9773,600 L26.8324,600 L26.8324,508.081 L0,508.081"/>
        </g>
        <g id="0BTBFw6f90Nfh9rP1dl_3C" title="B204">
            <path style="stroke:black; fill:none;" d="M66.2875,196.084 L106.6,196.084 L106.6,278.614 L66.2875,278.614 L66.2875,196.084"/>
        </g>
        <g id="0BTBFw6f90Nfh9rP1dl_39" title="B203">
            <path style="stroke:black; fill:none;" d="M109.113,448.777 L11.0303,448.777 L11.0303,297.765 L37.8627,297.765 L39.2356,297.765 L62.0897,297.765 L66.2875,297.765 L66.2875,283.481 L108.61,283.481 L109.113,283.481 L109.113,448.777"/>
        </g>
        <g id="0BTBFw6f90Nfh9rP1dl_3A" title="B202">
            <path style="stroke:black; fill:none;" d="M109.113,165.296 L108.61,165.296 L66.2875,165.296 L66.2875,151.012 L60.3624,151.012 L37.5083,151.012 L11.0303,151.012 L11.0303,6.82121e-13 L109.113,2.84217e-13 L109.113,165.296"/>
        </g>
        <g id="2gRXFgjRn2HPE$YoDLX3FV" title="A205">
            <path style="stroke:black; fill:none;" d="M166.486,280.201 L126.174,280.201 L126.174,255.564 L166.486,255.564 L166.486,280.201"/>
        </g>
        <g id="2gRXFgjRn2HPE$YoDLX3FC" title="B205">
            <path style="stroke:black; fill:none;" d="M66.2875,168.576 L106.6,168.576 L106.6,192.804 L66.2875,192.804 L66.2875,168.576"/>
        </g>
    </g>
</svg>
